<svg width="1372" height="640" viewBox="0 0 1372 640" fill="none" xmlns="http://www.w3.org/2000/svg">
<rect x="5.5" y="5.5" width="1361" height="629" stroke="#26242C"/>
<path fill-rule="evenodd" clip-rule="evenodd" d="M7 1C7 0.447715 6.55228 0 6 0H5C4.44772 0 4 0.447715 4 1V3C4 3.55229 3.55228 4 3 4H1C0.447715 4 0 4.44772 0 5V6C0 6.55228 0.447715 7 1 7H3C3.55228 7 4 7.44772 4 8V10C4 10.5523 4.44772 11 5 11H6C6.55228 11 7 10.5523 7 10V8C7 7.44771 7.44772 7 8 7H10C10.5523 7 11 6.55228 11 6V5C11 4.44772 10.5523 4 10 4H8C7.44772 4 7 3.55228 7 3V1Z" fill="#ADA8C4"/>
<path fill-rule="evenodd" clip-rule="evenodd" d="M1368 1C1368 0.447715 1367.55 0 1367 0H1366C1365.45 0 1365 0.447715 1365 1V3C1365 3.55229 1364.55 4 1364 4H1362C1361.45 4 1361 4.44772 1361 5V6C1361 6.55228 1361.45 7 1362 7H1364C1364.55 7 1365 7.44772 1365 8V10C1365 10.5523 1365.45 11 1366 11H1367C1367.55 11 1368 10.5523 1368 10V8C1368 7.44771 1368.45 7 1369 7H1371C1371.55 7 1372 6.55228 1372 6V5C1372 4.44772 1371.55 4 1371 4H1369C1368.45 4 1368 3.55228 1368 3V1Z" fill="#ADA8C4"/>
<path fill-rule="evenodd" clip-rule="evenodd" d="M1368 630C1368 629.448 1367.55 629 1367 629H1366C1365.45 629 1365 629.448 1365 630V632C1365 632.552 1364.55 633 1364 633H1362C1361.45 633 1361 633.448 1361 634V635C1361 635.552 1361.45 636 1362 636H1364C1364.55 636 1365 636.448 1365 637V639C1365 639.552 1365.45 640 1366 640H1367C1367.55 640 1368 639.552 1368 639V637C1368 636.448 1368.45 636 1369 636H1371C1371.55 636 1372 635.552 1372 635V634C1372 633.448 1371.55 633 1371 633H1369C1368.45 633 1368 632.552 1368 632V630Z" fill="#ADA8C4"/>
<path fill-rule="evenodd" clip-rule="evenodd" d="M7 630C7 629.448 6.55228 629 6 629H5C4.44772 629 4 629.448 4 630V632C4 632.552 3.55228 633 3 633H1C0.447715 633 0 633.448 0 634V635C0 635.552 0.447715 636 1 636H3C3.55228 636 4 636.448 4 637V639C4 639.552 4.44772 640 5 640H6C6.55228 640 7 639.552 7 639V637C7 636.448 7.44772 636 8 636H10C10.5523 636 11 635.552 11 635V634C11 633.448 10.5523 633 10 633H8C7.44772 633 7 632.552 7 632V630Z" fill="#ADA8C4"/>
</svg>
