<svg width="40" height="40" viewBox="0 0 40 40" fill="none" xmlns="http://www.w3.org/2000/svg">
<rect width="40" height="40" rx="20" fill="#15131D"/>
<g clip-path="url(#clip0_35_27660)">
<path d="M18.4467 18.6204C18.2079 18.64 17.9851 18.7488 17.8228 18.9251C17.6604 19.1013 17.5703 19.3322 17.5703 19.5718C17.5703 19.8115 17.6604 20.0423 17.8228 20.2186C17.9851 20.3949 18.2079 20.5036 18.4467 20.5233C18.5669 20.5189 18.685 20.4907 18.7942 20.4404C18.9035 20.3901 19.0017 20.3186 19.0832 20.2302C19.1647 20.1417 19.2278 20.038 19.269 19.925C19.3102 19.812 19.3286 19.692 19.3231 19.5718C19.329 19.4516 19.3109 19.3314 19.2699 19.2182C19.2289 19.105 19.1657 19.0011 19.0842 18.9126C19.0026 18.824 18.9042 18.7526 18.7948 18.7024C18.6853 18.6523 18.567 18.6244 18.4467 18.6204ZM21.5753 18.6204C21.3838 18.6047 21.192 18.6471 21.025 18.7421C20.8579 18.8371 20.7235 18.9803 20.6392 19.153C20.5549 19.3256 20.5246 19.5197 20.5524 19.7099C20.5802 19.9 20.6647 20.0773 20.7949 20.2186C20.9251 20.3599 21.0949 20.4587 21.2821 20.502C21.4693 20.5452 21.6652 20.531 21.8442 20.4611C22.0232 20.3912 22.1769 20.269 22.2853 20.1103C22.3937 19.9516 22.4517 19.764 22.4517 19.5718C22.4571 19.4519 22.4388 19.332 22.3978 19.2191C22.3567 19.1063 22.2938 19.0026 22.2125 18.9142C22.1312 18.8258 22.0333 18.7543 21.9243 18.7039C21.8153 18.6534 21.6974 18.6251 21.5774 18.6204H21.5753Z" fill="#757185"/>
<path d="M25.7429 11.4277H14.2572C14.0257 11.4283 13.7965 11.4745 13.5829 11.5637C13.3693 11.6528 13.1753 11.7832 13.0121 11.9474C12.8489 12.1116 12.7197 12.3064 12.6318 12.5205C12.544 12.7347 12.4992 12.9641 12.5 13.1956V24.782C12.4992 25.0135 12.544 25.2429 12.6318 25.4571C12.7197 25.6712 12.8489 25.866 13.0121 26.0302C13.1753 26.1944 13.3693 26.3248 13.5829 26.414C13.7965 26.5031 14.0257 26.5493 14.2572 26.5499H23.9772L23.5229 24.9642L24.62 25.982L25.6572 26.942L27.5 28.5706V13.1956C27.5009 12.9641 27.4561 12.7347 27.3682 12.5205C27.2803 12.3064 27.1511 12.1116 26.9879 11.9474C26.8247 11.7832 26.6307 11.6528 26.4171 11.5637C26.2035 11.4745 25.9744 11.4283 25.7429 11.4277V11.4277ZM22.4343 22.6242C22.4343 22.6242 22.1257 22.2556 21.8686 21.9277C22.4903 21.7825 23.0407 21.4219 23.4222 20.9099C23.1137 21.1151 22.7831 21.2848 22.4364 21.4156C22.0377 21.5858 21.6207 21.7095 21.1936 21.7842C20.4595 21.9193 19.7066 21.9164 18.9736 21.7756C18.5432 21.6914 18.1215 21.568 17.7136 21.407C17.3691 21.2735 17.0401 21.1032 16.7322 20.8992C17.099 21.4009 17.6295 21.7586 18.2322 21.9106C17.975 22.2363 17.6579 22.622 17.6579 22.622C17.1487 22.6358 16.644 22.5241 16.1881 22.2969C15.7322 22.0698 15.3392 21.734 15.0436 21.3192C15.0707 19.5817 15.492 17.873 16.2757 16.322C16.9666 15.7795 17.809 15.465 18.6864 15.422L18.7722 15.5249C17.9474 15.729 17.1777 16.1124 16.5179 16.6477C16.5179 16.6477 16.7064 16.5449 17.0236 16.3992C17.6404 16.1177 18.2978 15.9355 18.9714 15.8592C19.0194 15.8492 19.0682 15.8435 19.1172 15.842C19.6915 15.7672 20.2728 15.7614 20.8486 15.8249C21.754 15.9283 22.6305 16.2078 23.4286 16.6477C22.8022 16.1379 22.0748 15.7668 21.2943 15.5592L21.4143 15.422C22.2917 15.465 23.1341 15.7795 23.825 16.322C24.6087 17.873 25.03 19.5817 25.0572 21.3192C24.7594 21.7339 24.3648 22.0696 23.9076 22.2971C23.4505 22.5245 22.9447 22.6368 22.4343 22.6242Z" fill="#757185"/>
</g>
<defs>
<clipPath id="clip0_35_27660">
<rect width="17.1429" height="17.1429" fill="white" transform="translate(11.4277 11.4277)"/>
</clipPath>
</defs>
</svg>
