<svg width="244" height="257" viewBox="0 0 244 257" fill="none" xmlns="http://www.w3.org/2000/svg">
<path d="M243.791 178.664L243.724 184.077L122.635 254.445V249.032L243.791 178.664Z" fill="url(#paint0_linear_51_35708)"/>
<path d="M122.635 249.032V254.445L0.744141 184.077V178.664L122.635 249.032Z" fill="url(#paint1_linear_51_35708)"/>
<path d="M243.791 178.665L122.635 249.033L0.744141 178.665L121.833 108.297L243.791 178.665Z" fill="#000F2D"/>
<g filter="url(#filter0_b_51_35708)">
<path d="M222.34 178.665L122.568 236.603L22.1953 178.665L121.967 120.727L222.34 178.665Z" fill="url(#paint2_linear_51_35708)" fill-opacity="0.3"/>
</g>
<g filter="url(#filter1_b_51_35708)">
<path d="M178.013 213.581C178.193 213.684 178.414 213.686 178.595 213.585V213.585C178.996 213.363 179.001 212.788 178.604 212.558L173.781 209.772C173.601 209.668 173.38 209.666 173.199 209.767V209.767C172.798 209.99 172.793 210.565 173.19 210.794L178.013 213.581ZM192.314 205.361C192.494 205.465 192.714 205.467 192.896 205.366V205.366C193.297 205.143 193.301 204.568 192.904 204.339L188.082 201.552C187.902 201.449 187.681 201.447 187.5 201.547V201.547C187.099 201.77 187.094 202.345 187.491 202.574L192.314 205.361ZM195.856 203.289C196.035 203.393 196.256 203.395 196.438 203.294V203.294C196.838 203.071 196.843 202.497 196.446 202.267L191.623 199.481C191.444 199.377 191.223 199.375 191.041 199.476V199.476C190.641 199.698 190.636 200.273 191.033 200.503L195.856 203.289ZM181.622 211.509C181.801 211.613 182.022 211.615 182.204 211.514V211.514C182.604 211.291 182.609 210.716 182.212 210.487L177.389 207.7C177.21 207.597 176.989 207.595 176.807 207.695V207.695C176.407 207.918 176.402 208.493 176.799 208.722L181.622 211.509ZM199.464 201.218C199.644 201.321 199.865 201.323 200.046 201.223V201.223C200.447 201 200.452 200.425 200.055 200.196L195.232 197.409C195.052 197.305 194.831 197.303 194.65 197.404V197.404C194.249 197.627 194.244 198.202 194.641 198.431L199.464 201.218ZM185.163 209.504C185.343 209.608 185.564 209.61 185.745 209.509V209.509C186.146 209.286 186.151 208.711 185.754 208.482L180.931 205.696C180.751 205.592 180.531 205.59 180.349 205.691V205.691C179.948 205.913 179.943 206.488 180.341 206.718L185.163 209.504ZM188.705 207.433C188.885 207.536 189.106 207.538 189.287 207.437V207.437C189.688 207.215 189.693 206.64 189.296 206.41L184.473 203.624C184.293 203.52 184.072 203.518 183.891 203.619V203.619C183.49 203.842 183.485 204.417 183.882 204.646L188.705 207.433ZM213.765 192.998C213.945 193.102 214.166 193.104 214.347 193.003V193.003C214.748 192.78 214.753 192.205 214.356 191.976L209.533 189.189C209.353 189.086 209.132 189.084 208.951 189.185V189.185C208.55 189.407 208.545 189.982 208.942 190.211L213.765 192.998ZM217.307 190.926C217.487 191.03 217.707 191.032 217.889 190.931V190.931C218.29 190.709 218.294 190.134 217.897 189.904L213.075 187.118C212.895 187.014 212.674 187.012 212.493 187.113V187.113C212.092 187.336 212.087 187.91 212.484 188.14L217.307 190.926ZM203.006 199.146C203.186 199.25 203.407 199.252 203.588 199.151V199.151C203.989 198.928 203.994 198.353 203.597 198.124L198.774 195.337C198.594 195.234 198.373 195.232 198.192 195.333V195.333C197.791 195.555 197.786 196.13 198.183 196.36L203.006 199.146ZM220.916 188.855C221.095 188.959 221.316 188.96 221.497 188.86V188.86C221.898 188.637 221.903 188.062 221.506 187.833L216.683 185.046C216.504 184.942 216.283 184.941 216.101 185.041V185.041C215.7 185.264 215.696 185.839 216.093 186.068L220.916 188.855ZM210.157 195.003C210.336 195.107 210.557 195.108 210.738 195.008V195.008C211.139 194.785 211.144 194.21 210.747 193.981L205.924 191.194C205.744 191.09 205.524 191.089 205.342 191.189V191.189C204.941 191.412 204.937 191.987 205.334 192.216L210.157 195.003ZM206.615 197.074C206.794 197.178 207.015 197.18 207.197 197.079V197.079C207.597 196.857 207.602 196.282 207.205 196.052L202.382 193.266C202.203 193.162 201.982 193.16 201.8 193.261V193.261C201.4 193.484 201.395 194.058 201.792 194.288L206.615 197.074ZM138.719 236.301C138.899 236.405 139.12 236.407 139.301 236.306V236.306C139.702 236.084 139.707 235.509 139.31 235.279L134.487 232.493C134.307 232.389 134.086 232.387 133.905 232.488V232.488C133.504 232.711 133.499 233.285 133.896 233.515L138.719 236.301ZM142.261 234.23C142.441 234.334 142.662 234.335 142.843 234.235V234.235C143.244 234.012 143.249 233.437 142.852 233.208L138.029 230.421C137.849 230.317 137.628 230.316 137.447 230.416V230.416C137.046 230.639 137.041 231.214 137.438 231.443L142.261 234.23ZM228.066 184.712C228.246 184.815 228.466 184.817 228.648 184.717V184.717C229.049 184.494 229.054 183.919 228.656 183.69L223.834 180.903C223.654 180.799 223.433 180.797 223.252 180.898V180.898C222.851 181.121 222.846 181.696 223.243 181.925L228.066 184.712ZM174.471 215.652C174.651 215.756 174.872 215.758 175.053 215.657V215.657C175.454 215.434 175.459 214.86 175.062 214.63L170.239 211.844C170.059 211.74 169.838 211.738 169.657 211.839V211.839C169.256 212.061 169.251 212.636 169.648 212.866L174.471 215.652ZM145.87 232.158C146.049 232.262 146.27 232.264 146.452 232.163V232.163C146.852 231.94 146.857 231.366 146.46 231.136L141.637 228.35C141.458 228.246 141.237 228.244 141.055 228.345V228.345C140.655 228.567 140.65 229.142 141.047 229.372L145.87 232.158ZM135.111 238.373C135.29 238.477 135.511 238.479 135.693 238.378V238.378C136.093 238.155 136.098 237.58 135.701 237.351L130.878 234.564C130.699 234.461 130.478 234.459 130.296 234.56V234.56C129.895 234.782 129.891 235.357 130.288 235.587L135.111 238.373ZM131.569 240.445C131.748 240.548 131.969 240.55 132.151 240.45V240.45C132.552 240.227 132.556 239.652 132.159 239.423L127.336 236.636C127.157 236.532 126.936 236.53 126.755 236.631V236.631C126.354 236.854 126.349 237.429 126.746 237.658L131.569 240.445ZM149.411 230.087C149.591 230.19 149.812 230.192 149.993 230.092V230.092C150.394 229.869 150.399 229.294 150.002 229.065L145.179 226.278C144.999 226.174 144.779 226.172 144.597 226.273V226.273C144.196 226.496 144.191 227.071 144.589 227.3L149.411 230.087ZM167.321 219.795C167.5 219.899 167.721 219.901 167.903 219.8V219.8C168.304 219.578 168.308 219.003 167.911 218.773L163.088 215.987C162.909 215.883 162.688 215.881 162.507 215.982V215.982C162.106 216.205 162.101 216.779 162.498 217.009L167.321 219.795ZM153.02 228.015C153.2 228.119 153.421 228.121 153.602 228.02V228.02C154.003 227.797 154.008 227.222 153.611 226.993L148.788 224.206C148.608 224.103 148.387 224.101 148.206 224.201V224.201C147.805 224.424 147.8 224.999 148.197 225.228L153.02 228.015ZM163.712 221.867C163.892 221.971 164.113 221.973 164.294 221.872V221.872C164.695 221.649 164.7 221.074 164.303 220.845L159.48 218.058C159.3 217.955 159.079 217.953 158.898 218.053V218.053C158.497 218.276 158.492 218.851 158.889 219.08L163.712 221.867ZM170.863 217.724C171.042 217.828 171.263 217.829 171.445 217.729V217.729C171.845 217.506 171.85 216.931 171.453 216.702L166.63 213.915C166.451 213.811 166.23 213.809 166.048 213.91V213.91C165.648 214.133 165.643 214.708 166.04 214.937L170.863 217.724ZM156.562 226.01C156.741 226.114 156.962 226.116 157.144 226.015V226.015C157.545 225.792 157.549 225.218 157.152 224.988L152.329 222.202C152.15 222.098 151.929 222.096 151.748 222.197V222.197C151.347 222.419 151.342 222.994 151.739 223.224L156.562 226.01ZM160.17 223.939C160.35 224.042 160.571 224.044 160.752 223.944V223.944C161.153 223.721 161.158 223.146 160.761 222.917L155.938 220.13C155.758 220.026 155.538 220.024 155.356 220.125V220.125C154.955 220.348 154.95 220.923 155.348 221.152L160.17 223.939ZM224.457 186.783C224.637 186.887 224.858 186.889 225.039 186.788V186.788C225.44 186.565 225.445 185.991 225.048 185.761L220.225 182.975C220.045 182.871 219.824 182.869 219.643 182.97V182.97C219.242 183.192 219.237 183.767 219.634 183.997L224.457 186.783ZM89.2483 220.058C89.0669 219.958 88.846 219.959 88.6664 220.063L83.8435 222.85C83.4464 223.079 83.4512 223.654 83.8521 223.877V223.877C84.0335 223.977 84.2544 223.976 84.434 223.872L89.2569 221.085C89.654 220.856 89.6491 220.281 89.2483 220.058V220.058ZM85.6397 217.987C85.4583 217.886 85.2374 217.888 85.0578 217.992L80.2349 220.778C79.8378 221.008 79.8426 221.582 80.2435 221.805V221.805C80.4248 221.906 80.6458 221.904 80.8254 221.8L85.6483 219.014C86.0454 218.784 86.0405 218.209 85.6397 217.987V217.987ZM121.731 238.806C121.338 238.599 120.866 238.608 120.481 238.831L115.987 241.427C115.59 241.657 115.595 242.232 115.996 242.454V242.454C116.177 242.555 116.398 242.553 116.577 242.449L119.266 240.896C121.145 239.811 123.46 239.811 125.339 240.896L128.027 242.449C128.207 242.553 128.428 242.555 128.609 242.454V242.454C129.01 242.232 129.015 241.657 128.618 241.427L124.089 238.811C123.728 238.602 123.283 238.604 122.924 238.815V238.815C122.579 239.018 122.154 239.028 121.799 238.842L121.731 238.806ZM82.0979 215.915C81.9165 215.814 81.6956 215.816 81.516 215.92L76.6931 218.706C76.296 218.936 76.3008 219.511 76.7017 219.733V219.733C76.8831 219.834 77.104 219.832 77.2836 219.729L82.1065 216.942C82.5036 216.713 82.4987 216.138 82.0979 215.915V215.915ZM96.3987 224.201C96.2173 224.101 95.9964 224.103 95.8168 224.206L90.9939 226.993C90.5968 227.222 90.6016 227.797 91.0025 228.02V228.02C91.1839 228.121 91.4048 228.119 91.5844 228.015L96.4073 225.228C96.8044 224.999 96.7996 224.424 96.3987 224.201V224.201ZM74.9475 211.839C74.7661 211.738 74.5452 211.74 74.3656 211.844L69.5427 214.63C69.1456 214.86 69.1504 215.434 69.5513 215.657V215.657C69.7326 215.758 69.9536 215.756 70.1332 215.652L74.9561 212.866C75.3532 212.636 75.3483 212.061 74.9475 211.839V211.839ZM78.4892 213.91C78.3079 213.81 78.087 213.811 77.9074 213.915L73.0844 216.702C72.6874 216.931 72.6922 217.506 73.0931 217.729V217.729C73.2744 217.829 73.4953 217.828 73.675 217.724L78.4979 214.937C78.895 214.708 78.8901 214.133 78.4892 213.91V213.91ZM107.091 230.416C106.91 230.316 106.689 230.317 106.509 230.421L101.686 233.208C101.289 233.437 101.294 234.012 101.695 234.235V234.235C101.876 234.335 102.097 234.334 102.277 234.23L107.1 231.443C107.497 231.214 107.492 230.639 107.091 230.416V230.416ZM114.241 234.493C114.06 234.392 113.839 234.394 113.659 234.498L108.836 237.284C108.439 237.514 108.444 238.088 108.845 238.311V238.311C109.026 238.412 109.247 238.41 109.427 238.306L114.25 235.52C114.647 235.29 114.642 234.715 114.241 234.493V234.493ZM117.85 236.564C117.669 236.464 117.448 236.465 117.268 236.569L112.445 239.356C112.048 239.585 112.053 240.16 112.454 240.383V240.383C112.635 240.484 112.856 240.482 113.036 240.378L117.859 237.591C118.256 237.362 118.251 236.787 117.85 236.564V236.564ZM99.9405 226.273C99.7591 226.172 99.5382 226.174 99.3586 226.278L94.5357 229.065C94.1386 229.294 94.1434 229.869 94.5443 230.092V230.092C94.7257 230.192 94.9466 230.19 95.1262 230.087L99.9491 227.3C100.346 227.071 100.341 226.496 99.9405 226.273V226.273ZM110.699 232.421C110.518 232.32 110.297 232.322 110.118 232.426L105.295 235.213C104.898 235.442 104.902 236.017 105.303 236.24V236.24C105.485 236.34 105.706 236.338 105.885 236.235L110.708 233.448C111.105 233.219 111.1 232.644 110.699 232.421V232.421ZM103.549 228.345C103.368 228.244 103.147 228.246 102.967 228.35L98.1443 231.136C97.7472 231.366 97.752 231.94 98.1529 232.163V232.163C98.3343 232.264 98.5552 232.262 98.7348 232.158L103.558 229.372C103.955 229.142 103.95 228.567 103.549 228.345V228.345ZM71.3388 209.767C71.1575 209.666 70.9366 209.668 70.7569 209.772L65.9341 212.558C65.537 212.788 65.5418 213.363 65.9427 213.585V213.585C66.124 213.686 66.345 213.684 66.5246 213.581L71.3475 210.794C71.7445 210.565 71.7397 209.99 71.3388 209.767V209.767ZM92.7901 222.13C92.6087 222.029 92.3878 222.031 92.2082 222.135L87.3853 224.921C86.9882 225.151 86.993 225.726 87.3939 225.948V225.948C87.5753 226.049 87.7962 226.047 87.9758 225.943L92.7987 223.157C93.1958 222.927 93.1909 222.353 92.7901 222.13V222.13ZM42.7372 193.261C42.5559 193.16 42.3349 193.162 42.1553 193.266L37.3324 196.052C36.9353 196.282 36.9402 196.857 37.341 197.079V197.079C37.5224 197.18 37.7433 197.178 37.9229 197.074L42.7458 194.288C43.1429 194.058 43.1381 193.484 42.7372 193.261V193.261ZM39.1954 191.189C39.0141 191.089 38.7932 191.09 38.6135 191.194L33.7906 193.981C33.3936 194.21 33.3984 194.785 33.7993 195.008V195.008C33.9806 195.108 34.2015 195.107 34.3811 195.003L39.2041 192.216C39.6011 191.987 39.5963 191.412 39.1954 191.189V191.189ZM67.797 207.695C67.6157 207.595 67.3948 207.597 67.2152 207.7L62.3923 210.487C61.9952 210.716 62 211.291 62.4009 211.514V211.514C62.5822 211.615 62.8031 211.613 62.9828 211.509L67.8057 208.722C68.2028 208.493 68.1979 207.918 67.797 207.695V207.695ZM35.6536 189.118C35.4723 189.017 35.2514 189.019 35.0717 189.123L30.2488 191.909C29.8518 192.139 29.8566 192.713 30.2575 192.936V192.936C30.4388 193.037 30.6597 193.035 30.8394 192.931L35.6623 190.145C36.0593 189.915 36.0545 189.34 35.6536 189.118V189.118ZM21.3528 180.898C21.1715 180.797 20.9505 180.799 20.7709 180.903L15.948 183.69C15.5509 183.919 15.5558 184.494 15.9566 184.717V184.717C16.138 184.817 16.3589 184.815 16.5385 184.712L21.3614 181.925C21.7585 181.696 21.7537 181.121 21.3528 180.898V180.898ZM24.8946 182.903C24.7132 182.802 24.4923 182.804 24.3127 182.908L19.4898 185.694C19.0927 185.924 19.0976 186.499 19.4984 186.721V186.721C19.6798 186.822 19.9007 186.82 20.0803 186.716L24.9032 183.93C25.3003 183.7 25.2955 183.126 24.8946 182.903V182.903ZM28.5032 184.974C28.3219 184.874 28.101 184.876 27.9213 184.979L23.0984 187.766C22.7014 187.995 22.7062 188.57 23.1071 188.793V188.793C23.2884 188.894 23.5093 188.892 23.689 188.788L28.5119 186.001C28.9089 185.772 28.9041 185.197 28.5032 184.974V184.974ZM60.6466 203.552C60.4653 203.451 60.2444 203.453 60.0647 203.557L55.2418 206.344C54.8448 206.573 54.8496 207.148 55.2505 207.371V207.371C55.4318 207.471 55.6528 207.469 55.8324 207.366L60.6553 204.579C61.0523 204.35 61.0475 203.775 60.6466 203.552V203.552ZM57.038 201.481C56.8567 201.38 56.6357 201.382 56.4561 201.485L51.6332 204.272C51.2362 204.501 51.241 205.076 51.6419 205.299V205.299C51.8232 205.4 52.0441 205.398 52.2238 205.294L57.0467 202.508C57.4437 202.278 57.4389 201.703 57.038 201.481V201.481ZM46.3458 195.333C46.1645 195.232 45.9436 195.234 45.7639 195.337L40.941 198.124C40.544 198.353 40.5488 198.928 40.9497 199.151V199.151C41.131 199.252 41.3519 199.25 41.5316 199.146L46.3545 196.36C46.7515 196.13 46.7467 195.555 46.3458 195.333V195.333ZM64.1884 205.624C64.0071 205.523 63.7862 205.525 63.6065 205.629L58.7836 208.415C58.3866 208.645 58.3914 209.22 58.7923 209.442V209.442C58.9736 209.543 59.1945 209.541 59.3742 209.437L64.1971 206.651C64.5941 206.421 64.5893 205.847 64.1884 205.624V205.624ZM49.8876 197.404C49.7063 197.303 49.4854 197.305 49.3057 197.409L44.4828 200.196C44.0858 200.425 44.0906 201 44.4915 201.223V201.223C44.6728 201.323 44.8937 201.321 45.0733 201.218L49.8963 198.431C50.2933 198.202 50.2885 197.627 49.8876 197.404V197.404ZM53.4962 199.409C53.3149 199.308 53.094 199.31 52.9143 199.414L48.0914 202.2C47.6944 202.43 47.6992 203.005 48.1001 203.227V203.227C48.2814 203.328 48.5023 203.326 48.682 203.222L53.5049 200.436C53.9019 200.206 53.8971 199.632 53.4962 199.409V199.409ZM32.045 187.046C31.8637 186.945 31.6427 186.947 31.4631 187.051L26.6402 189.838C26.2431 190.067 26.248 190.642 26.6488 190.865V190.865C26.8302 190.965 27.0511 190.963 27.2307 190.86L32.0536 188.073C32.4507 187.844 32.4459 187.269 32.045 187.046V187.046ZM20.7709 176.425C20.9505 176.529 21.1715 176.531 21.3528 176.43V176.43C21.7537 176.207 21.7585 175.633 21.3614 175.403L16.5385 172.617C16.3589 172.513 16.138 172.511 15.9566 172.612V172.612C15.5558 172.834 15.5509 173.409 15.948 173.639L20.7709 176.425ZM27.9213 172.349C28.101 172.453 28.3219 172.454 28.5032 172.354V172.354C28.9041 172.131 28.9089 171.556 28.5119 171.327L23.689 168.54C23.5093 168.436 23.2884 168.434 23.1071 168.535V168.535C22.7062 168.758 22.7014 169.333 23.0984 169.562L27.9213 172.349ZM102.967 128.979C103.147 129.082 103.368 129.084 103.549 128.983V128.983C103.95 128.761 103.955 128.186 103.558 127.956L98.7348 125.17C98.5552 125.066 98.3343 125.064 98.1529 125.165V125.165C97.752 125.388 97.7472 125.963 98.1443 126.192L102.967 128.979ZM99.3586 131.05C99.5382 131.154 99.7591 131.156 99.9405 131.055V131.055C100.341 130.832 100.346 130.257 99.9491 130.028L95.1262 127.242C94.9466 127.138 94.7257 127.136 94.5443 127.237V127.237C94.1434 127.459 94.1386 128.034 94.5357 128.264L99.3586 131.05ZM24.3127 174.354C24.4923 174.457 24.7132 174.459 24.8946 174.358V174.358C25.2955 174.136 25.3003 173.561 24.9032 173.331L20.0803 170.545C19.9007 170.441 19.6798 170.439 19.4984 170.54V170.54C19.0976 170.763 19.0927 171.338 19.4898 171.567L24.3127 174.354ZM106.509 126.907C106.689 127.011 106.91 127.013 107.091 126.912V126.912C107.492 126.689 107.497 126.114 107.1 125.885L102.277 123.098C102.097 122.994 101.876 122.993 101.695 123.093V123.093C101.294 123.316 101.289 123.891 101.686 124.12L106.509 126.907ZM31.4631 170.277C31.6427 170.381 31.8637 170.383 32.045 170.282V170.282C32.4459 170.059 32.4507 169.485 32.0536 169.255L27.2307 166.469C27.0511 166.365 26.8302 166.363 26.6488 166.464V166.464C26.248 166.686 26.2431 167.261 26.6402 167.491L31.4631 170.277ZM35.0717 168.206C35.2514 168.309 35.4723 168.311 35.6536 168.21V168.21C36.0545 167.988 36.0593 167.413 35.6623 167.183L30.8394 164.397C30.6597 164.293 30.4388 164.291 30.2575 164.392V164.392C29.8566 164.615 29.8518 165.19 30.2488 165.419L35.0717 168.206ZM92.2082 135.193C92.3878 135.297 92.6087 135.299 92.7901 135.198V135.198C93.1909 134.976 93.1958 134.401 92.7987 134.171L87.9758 131.385C87.7962 131.281 87.5753 131.279 87.3939 131.38V131.38C86.993 131.603 86.9882 132.177 87.3853 132.407L92.2082 135.193ZM81.516 141.341C81.6956 141.445 81.9165 141.447 82.0979 141.346V141.346C82.4987 141.124 82.5036 140.549 82.1065 140.319L77.2836 137.533C77.104 137.429 76.8831 137.427 76.7017 137.528V137.528C76.3008 137.751 76.296 138.325 76.6931 138.555L81.516 141.341ZM38.6135 166.134C38.7932 166.238 39.0141 166.24 39.1954 166.139V166.139C39.5963 165.916 39.6011 165.341 39.2041 165.112L34.3811 162.325C34.2015 162.222 33.9806 162.22 33.7993 162.32V162.32C33.3984 162.543 33.3936 163.118 33.7906 163.347L38.6135 166.134ZM17.4519 178.664L12.3394 181.618C11.9423 181.847 11.9472 182.422 12.348 182.645V182.645C12.5294 182.746 12.7503 182.744 12.9299 182.64L17.4633 180.021C17.9878 179.718 17.9814 178.958 17.4519 178.664V178.664V178.664C17.9814 178.37 17.9878 177.61 17.4633 177.307L12.9299 174.688C12.7503 174.584 12.5294 174.583 12.348 174.683V174.683C11.9472 174.906 11.9423 175.481 12.3394 175.71L17.4519 178.664ZM77.9074 143.413C78.087 143.517 78.3079 143.519 78.4892 143.418V143.418C78.8901 143.195 78.8949 142.62 78.4979 142.391L73.675 139.604C73.4953 139.501 73.2744 139.499 73.0931 139.599V139.599C72.6922 139.822 72.6874 140.397 73.0845 140.626L77.9074 143.413ZM85.0578 139.337C85.2374 139.44 85.4583 139.442 85.6397 139.341V139.341C86.0405 139.119 86.0454 138.544 85.6483 138.315L80.8254 135.528C80.6458 135.424 80.4248 135.422 80.2435 135.523V135.523C79.8426 135.746 79.8378 136.321 80.2349 136.55L85.0578 139.337ZM70.7569 147.556C70.9366 147.66 71.1575 147.662 71.3388 147.561V147.561C71.7397 147.338 71.7445 146.764 71.3475 146.534L66.5246 143.748C66.345 143.644 66.124 143.642 65.9427 143.743V143.743C65.5418 143.965 65.537 144.54 65.934 144.77L70.7569 147.556ZM95.8168 133.122C95.9964 133.226 96.2173 133.227 96.3987 133.127V133.127C96.7996 132.904 96.8044 132.329 96.4073 132.1L91.5844 129.313C91.4048 129.209 91.1839 129.207 91.0025 129.308V129.308C90.6016 129.531 90.5968 130.106 90.9939 130.335L95.8168 133.122ZM74.3656 145.485C74.5452 145.588 74.7661 145.59 74.9475 145.489V145.489C75.3483 145.267 75.3532 144.692 74.9561 144.463L70.1332 141.676C69.9536 141.572 69.7326 141.57 69.5513 141.671V141.671C69.1504 141.894 69.1456 142.469 69.5427 142.698L74.3656 145.485ZM45.7639 161.991C45.9436 162.094 46.1645 162.096 46.3458 161.996V161.996C46.7467 161.773 46.7515 161.198 46.3545 160.969L41.5316 158.182C41.3519 158.078 41.131 158.076 40.9497 158.177V158.177C40.5488 158.4 40.544 158.975 40.941 159.204L45.7639 161.991ZM49.3057 159.919C49.4854 160.023 49.7063 160.025 49.8876 159.924V159.924C50.2885 159.701 50.2933 159.126 49.8963 158.897L45.0733 156.11C44.8937 156.007 44.6728 156.005 44.4915 156.106V156.106C44.0906 156.328 44.0858 156.903 44.4828 157.133L49.3057 159.919ZM52.9143 157.847C53.094 157.951 53.3149 157.953 53.4962 157.852V157.852C53.8971 157.63 53.9019 157.055 53.5049 156.825L48.682 154.039C48.5023 153.935 48.2814 153.933 48.1001 154.034V154.034C47.6992 154.257 47.6944 154.831 48.0914 155.061L52.9143 157.847ZM113.659 122.831C113.839 122.934 114.06 122.936 114.241 122.835V122.835C114.642 122.613 114.647 122.038 114.25 121.808L109.427 119.022C109.247 118.918 109.026 118.916 108.845 119.017V119.017C108.444 119.24 108.439 119.815 108.836 120.044L113.659 122.831ZM63.6065 151.699C63.7862 151.803 64.0071 151.805 64.1884 151.704V151.704C64.5893 151.482 64.5941 150.907 64.1971 150.677L59.3742 147.891C59.1945 147.787 58.9736 147.785 58.7923 147.886V147.886C58.3914 148.109 58.3866 148.683 58.7836 148.913L63.6065 151.699ZM56.4561 155.843C56.6357 155.946 56.8567 155.948 57.038 155.848V155.848C57.4389 155.625 57.4437 155.05 57.0467 154.821L52.2238 152.034C52.0441 151.93 51.8232 151.928 51.6419 152.029V152.029C51.241 152.252 51.2362 152.827 51.6332 153.056L56.4561 155.843ZM117.268 120.759C117.448 120.863 117.669 120.865 117.85 120.764V120.764C118.251 120.541 118.256 119.966 117.859 119.737L113.036 116.95C112.856 116.846 112.635 116.845 112.454 116.945V116.945C112.053 117.168 112.048 117.743 112.445 117.972L117.268 120.759ZM110.118 124.835C110.297 124.939 110.518 124.941 110.699 124.84V124.84C111.1 124.617 111.105 124.043 110.708 123.813L105.885 121.027C105.706 120.923 105.485 120.921 105.303 121.022V121.022C104.902 121.244 104.898 121.819 105.295 122.049L110.118 124.835ZM60.0647 153.771C60.2444 153.875 60.4653 153.877 60.6466 153.776V153.776C61.0475 153.553 61.0523 152.978 60.6553 152.749L55.8324 149.962C55.6528 149.859 55.4318 149.857 55.2505 149.958V149.958C54.8496 150.18 54.8448 150.755 55.2419 150.985L60.0647 153.771ZM42.1553 164.062C42.3349 164.166 42.5559 164.168 42.7372 164.067V164.067C43.1381 163.844 43.1429 163.27 42.7458 163.04L37.9229 160.254C37.7433 160.15 37.5224 160.148 37.341 160.249V160.249C36.9402 160.471 36.9353 161.046 37.3324 161.276L42.1553 164.062ZM67.2152 149.628C67.3948 149.732 67.6157 149.733 67.797 149.633V149.633C68.1979 149.41 68.2028 148.835 67.8057 148.606L62.9828 145.819C62.8032 145.715 62.5822 145.714 62.4009 145.814V145.814C62 146.037 61.9952 146.612 62.3922 146.841L67.2152 149.628ZM88.6664 137.265C88.846 137.369 89.0669 137.371 89.2483 137.27V137.27C89.6491 137.047 89.654 136.472 89.2569 136.243L84.434 133.456C84.2544 133.353 84.0335 133.351 83.8521 133.451V133.451C83.4512 133.674 83.4464 134.249 83.8435 134.478L88.6664 137.265ZM198.192 161.996C198.373 162.096 198.594 162.094 198.774 161.991L203.597 159.204C203.994 158.975 203.989 158.4 203.588 158.177V158.177C203.407 158.076 203.186 158.078 203.006 158.182L198.183 160.969C197.786 161.198 197.791 161.773 198.192 161.996V161.996ZM227.019 178.664V178.664C226.512 178.963 226.514 179.697 227.024 179.992L231.609 182.641C231.788 182.744 232.008 182.746 232.188 182.646V182.646C232.589 182.423 232.592 181.849 232.195 181.622L227.019 178.664L232.195 175.707C232.592 175.479 232.589 174.905 232.188 174.683V174.683C232.008 174.582 231.788 174.584 231.609 174.687L227.024 177.336C226.514 177.631 226.512 178.366 227.019 178.664V178.664ZM173.199 147.561C173.38 147.662 173.601 147.66 173.781 147.556L178.604 144.77C179.001 144.54 178.996 143.965 178.595 143.743V143.743C178.414 143.642 178.193 143.644 178.013 143.748L173.19 146.534C172.793 146.764 172.798 147.338 173.199 147.561V147.561ZM223.185 176.43C223.366 176.531 223.587 176.529 223.767 176.425L228.59 173.639C228.987 173.409 228.982 172.834 228.581 172.612V172.612C228.4 172.511 228.179 172.513 227.999 172.617L223.176 175.403C222.779 175.632 222.784 176.207 223.185 176.43V176.43ZM219.643 174.358C219.824 174.459 220.045 174.457 220.225 174.354L225.048 171.567C225.445 171.338 225.44 170.763 225.039 170.54V170.54C224.858 170.439 224.637 170.441 224.457 170.545L219.634 173.331C219.237 173.561 219.242 174.136 219.643 174.358V174.358ZM205.342 166.139C205.524 166.24 205.744 166.238 205.924 166.134L210.747 163.347C211.144 163.118 211.139 162.543 210.738 162.32V162.32C210.557 162.22 210.336 162.222 210.157 162.325L205.334 165.112C204.937 165.341 204.941 165.916 205.342 166.139V166.139ZM208.884 168.21C209.065 168.311 209.286 168.309 209.466 168.206L214.289 165.419C214.686 165.19 214.681 164.615 214.28 164.392V164.392C214.099 164.291 213.878 164.293 213.698 164.397L208.875 167.183C208.478 167.413 208.483 167.988 208.884 168.21V168.21ZM216.034 172.354C216.216 172.454 216.437 172.453 216.616 172.349L221.439 169.562C221.836 169.333 221.831 168.758 221.431 168.535V168.535C221.249 168.434 221.028 168.436 220.849 168.54L216.026 171.327C215.629 171.556 215.634 172.131 216.034 172.354V172.354ZM201.734 164.067C201.915 164.168 202.136 164.166 202.315 164.062L207.138 161.276C207.535 161.046 207.531 160.471 207.13 160.249V160.249C206.948 160.148 206.727 160.15 206.548 160.254L201.725 163.04C201.328 163.27 201.333 163.844 201.734 164.067V164.067ZM212.493 170.282C212.674 170.383 212.895 170.381 213.075 170.277L217.897 167.491C218.294 167.261 218.29 166.686 217.889 166.464V166.464C217.707 166.363 217.487 166.365 217.307 166.469L212.484 169.255C212.087 169.484 212.092 170.059 212.493 170.282V170.282ZM194.583 159.924C194.765 160.025 194.985 160.023 195.165 159.919L199.988 157.133C200.385 156.903 200.38 156.328 199.979 156.106V156.106C199.798 156.005 199.577 156.007 199.397 156.11L194.575 158.897C194.177 159.126 194.182 159.701 194.583 159.924V159.924ZM151.748 135.198C151.929 135.299 152.15 135.297 152.329 135.193L157.152 132.407C157.549 132.177 157.545 131.603 157.144 131.38V131.38C156.962 131.279 156.741 131.281 156.562 131.385L151.739 134.171C151.342 134.401 151.347 134.976 151.748 135.198V135.198ZM155.289 137.27C155.471 137.371 155.692 137.369 155.871 137.265L160.694 134.478C161.091 134.249 161.086 133.674 160.686 133.451V133.451C160.504 133.351 160.283 133.353 160.104 133.456L155.281 136.243C154.884 136.472 154.888 137.047 155.289 137.27V137.27ZM140.989 128.983C141.17 129.084 141.391 129.082 141.57 128.979L146.393 126.192C146.79 125.963 146.786 125.388 146.385 125.165V125.165C146.203 125.064 145.982 125.066 145.803 125.17L140.98 127.956C140.583 128.186 140.588 128.761 140.989 128.983V128.983ZM144.597 131.055C144.779 131.156 144.999 131.154 145.179 131.05L150.002 128.264C150.399 128.034 150.394 127.459 149.993 127.237V127.237C149.812 127.136 149.591 127.138 149.411 127.242L144.589 130.028C144.191 130.257 144.196 130.832 144.597 131.055V131.055ZM148.139 133.127C148.32 133.227 148.541 133.226 148.721 133.122L153.544 130.335C153.941 130.106 153.936 129.531 153.535 129.308V129.308C153.354 129.207 153.133 129.209 152.953 129.313L148.13 132.1C147.733 132.329 147.738 132.904 148.139 133.127V133.127ZM169.59 145.489C169.772 145.59 169.992 145.588 170.172 145.485L174.995 142.698C175.392 142.469 175.387 141.894 174.986 141.671V141.671C174.805 141.57 174.584 141.572 174.404 141.676L169.582 144.463C169.184 144.692 169.189 145.267 169.59 145.489V145.489ZM166.048 143.418C166.23 143.519 166.451 143.517 166.63 143.413L171.453 140.626C171.85 140.397 171.845 139.822 171.445 139.599V139.599C171.263 139.499 171.042 139.501 170.863 139.604L166.04 142.391C165.643 142.62 165.648 143.195 166.048 143.418V143.418ZM162.44 141.346C162.621 141.447 162.842 141.445 163.022 141.341L167.845 138.555C168.242 138.325 168.237 137.751 167.836 137.528V137.528C167.655 137.427 167.434 137.429 167.254 137.533L162.431 140.319C162.034 140.549 162.039 141.124 162.44 141.346V141.346ZM158.898 139.341C159.079 139.442 159.3 139.44 159.48 139.337L164.303 136.55C164.7 136.321 164.695 135.746 164.294 135.523V135.523C164.113 135.422 163.892 135.424 163.712 135.528L158.889 138.315C158.492 138.544 158.497 139.119 158.898 139.341V139.341ZM187.433 155.848C187.614 155.948 187.835 155.946 188.015 155.843L192.838 153.056C193.235 152.827 193.23 152.252 192.829 152.029V152.029C192.648 151.928 192.427 151.93 192.247 152.034L187.424 154.821C187.027 155.05 187.032 155.625 187.433 155.848V155.848ZM137.447 126.912C137.628 127.013 137.849 127.011 138.029 126.907L142.852 124.12C143.249 123.891 143.244 123.316 142.843 123.093V123.093C142.662 122.993 142.441 122.994 142.261 123.098L137.438 125.885C137.041 126.114 137.046 126.689 137.447 126.912V126.912ZM180.282 151.704C180.464 151.805 180.685 151.803 180.864 151.699L185.687 148.913C186.084 148.683 186.079 148.109 185.679 147.886V147.886C185.497 147.785 185.276 147.787 185.097 147.891L180.274 150.677C179.877 150.907 179.882 151.482 180.282 151.704V151.704ZM191.041 157.852C191.223 157.953 191.444 157.951 191.623 157.847L196.446 155.061C196.843 154.831 196.838 154.257 196.438 154.034V154.034C196.256 153.933 196.035 153.935 195.856 154.039L191.033 156.825C190.636 157.055 190.641 157.63 191.041 157.852V157.852ZM176.741 149.633C176.922 149.733 177.143 149.732 177.322 149.628L182.145 146.841C182.542 146.612 182.538 146.037 182.137 145.814V145.814C181.955 145.714 181.734 145.715 181.555 145.819L176.732 148.606C176.335 148.835 176.34 149.41 176.741 149.633V149.633ZM183.891 153.776C184.072 153.877 184.293 153.875 184.473 153.771L189.296 150.984C189.693 150.755 189.688 150.18 189.287 149.958V149.958C189.106 149.857 188.885 149.859 188.705 149.962L183.882 152.749C183.485 152.978 183.49 153.553 183.891 153.776V153.776ZM122.235 118.119L116.511 114.812C116.331 114.708 116.11 114.706 115.929 114.807V114.807C115.528 115.03 115.523 115.604 115.92 115.834L119.841 118.099C120.58 118.526 121.489 118.534 122.235 118.119V118.119V118.119C122.933 118.571 123.824 118.593 124.543 118.178L128.483 115.901C128.88 115.672 128.876 115.096 128.474 114.873V114.873C128.293 114.773 128.073 114.774 127.894 114.877L122.235 118.119ZM133.838 124.84C134.019 124.941 134.24 124.939 134.42 124.835L139.243 122.049C139.64 121.819 139.635 121.244 139.234 121.022V121.022C139.053 120.921 138.832 120.923 138.652 121.027L133.83 123.813C133.432 124.043 133.437 124.617 133.838 124.84V124.84ZM130.296 122.835C130.478 122.936 130.699 122.934 130.878 122.831L135.701 120.044C136.098 119.815 136.093 119.24 135.693 119.017V119.017C135.511 118.916 135.29 118.918 135.111 119.022L130.288 121.808C129.891 122.038 129.895 122.613 130.296 122.835V122.835ZM126.688 120.764C126.869 120.865 127.09 120.863 127.27 120.759L132.093 117.972C132.49 117.743 132.485 117.168 132.084 116.945V116.945C131.903 116.845 131.682 116.846 131.502 116.95L126.679 119.737C126.282 119.966 126.287 120.541 126.688 120.764V120.764Z" fill="url(#paint3_linear_51_35708)" fill-opacity="0.6"/>
</g>
<path d="M177.434 172.744L177.367 186.911L122.436 218.854V204.687L177.434 172.744Z" fill="url(#paint4_linear_51_35708)"/>
<path d="M122.436 204.687V218.854L67.1035 186.911V172.744L122.436 204.687Z" fill="url(#paint5_linear_51_35708)"/>
<path d="M177.434 172.744L122.436 204.687L67.1035 172.744L122.102 140.801L177.434 172.744Z" fill="url(#paint6_linear_51_35708)"/>
<path d="M68.3066 172.743L122.102 141.469L176.298 172.743L122.436 204.018L68.3066 172.743Z" fill="url(#paint7_linear_51_35708)"/>
<path d="M87.8867 172.744L122.169 152.83L156.651 172.744L122.369 192.659L87.8867 172.744Z" stroke="#0194FE" stroke-miterlimit="10"/>
<path d="M89.8242 171.408L91.2275 170.606L85.9483 167.532L84.5449 168.334L89.8242 171.408ZM129.92 194.53L131.323 193.728L126.044 190.654L124.641 191.523L129.92 194.53ZM135.667 191.255L137.07 190.453L131.791 187.379L130.388 188.181L135.667 191.255ZM141.414 187.914L142.817 187.112L137.538 184.038L136.135 184.84L141.414 187.914ZM95.5713 168.067L96.9746 167.265L91.6953 164.191L90.292 164.992L95.5713 168.067ZM97.4424 184.639L102.722 181.565L101.318 180.763L96.039 183.838L97.4424 184.639ZM114.617 194.53L119.896 191.456L118.493 190.654L113.213 193.728L114.617 194.53ZM108.87 191.255L114.149 188.181L112.746 187.379L107.466 190.453L108.87 191.255ZM91.6953 181.298L96.9746 178.224L95.5713 177.422L90.292 180.496L91.6953 181.298ZM85.9483 178.024L91.2275 174.95L89.8242 174.148L84.5449 177.222L85.9483 178.024ZM103.123 187.914L108.402 184.84L106.999 184.038L101.719 187.112L103.123 187.914ZM101.251 164.792L102.655 163.99L97.3756 160.916L95.9722 161.718L101.251 164.792ZM152.841 181.298L154.245 180.496L148.965 177.422L147.562 178.224L152.841 181.298ZM137.538 161.451L142.817 158.377L141.414 157.575L136.135 160.649L137.538 161.451ZM149.032 168.067L154.312 164.992L152.908 164.191L147.629 167.265L149.032 168.067ZM143.285 164.792L148.564 161.718L147.161 160.916L141.882 163.99L143.285 164.792ZM131.791 158.176L137.07 155.102L135.667 154.3L130.388 157.374L131.791 158.176ZM126.044 154.835L131.323 151.761L129.92 150.959L124.641 154.033L126.044 154.835ZM158.588 178.024L159.992 177.222L154.712 174.148L153.309 174.95L158.588 178.024ZM112.746 158.176L114.149 157.374L108.87 154.3L107.466 155.102L112.746 158.176ZM106.999 161.451L108.402 160.649L103.123 157.575L101.719 158.377L106.999 161.451ZM147.094 184.639L148.498 183.838L143.218 180.763L141.815 181.565L147.094 184.639ZM118.493 154.835L119.896 154.033L114.617 150.959L113.213 151.761L118.493 154.835ZM154.712 171.408L159.992 168.334L158.588 167.532L153.309 170.606L154.712 171.408Z" fill="#0194FE"/>
<g opacity="0.52">
<path opacity="0.4" d="M0.744141 0.464844V185.774L122.635 256.142L243.724 185.774V0.464844H0.744141Z" fill="url(#paint8_linear_51_35708)"/>
<path opacity="0.4" d="M34.7578 51.8535V185.306L122.567 235.96L209.709 185.306V51.8535H34.7578Z" fill="url(#paint9_linear_51_35708)"/>
<path opacity="0.4" d="M67.9707 1.53516V172.477L122.434 203.885L176.563 172.477V1.53516H67.9707Z" fill="url(#paint10_linear_51_35708)"/>
</g>
<path fill-rule="evenodd" clip-rule="evenodd" d="M176 107.27C176 107.27 143.366 40.6863 141.311 36.5762C133.913 21.7798 110.896 20.4646 102.84 36.5762C101.246 39.7652 73.905 95.2137 67 109.901C78.6727 114.339 91.825 110.887 97.5792 98.8854C99.7642 94.5155 103.176 87.3635 106.88 79.5986C112.373 68.0832 118.508 55.2199 122.24 48.0845L137.201 78.8281C129.309 73.0739 112.476 78.8617 110.403 83.267C108.33 87.6723 100.116 104.952 98.0724 106.612C95.4419 108.75 110.403 103.982 119.445 98.2278C127.994 92.7875 140.489 92.9669 151.011 107.27H161.368L139.737 63.0475C137.238 62.9975 135.228 60.9561 135.228 58.4451C135.228 55.9028 137.289 53.8418 139.831 53.8418C142.374 53.8418 144.435 55.9028 144.435 58.4451C144.435 59.4561 144.109 60.3909 143.556 61.1503L166.136 107.27H176Z" fill="url(#paint11_linear_51_35708)"/>
<defs>
<filter id="filter0_b_51_35708" x="-77.8047" y="20.7266" width="400.145" height="315.877" filterUnits="userSpaceOnUse" color-interpolation-filters="sRGB">
<feFlood flood-opacity="0" result="BackgroundImageFix"/>
<feGaussianBlur in="BackgroundImageFix" stdDeviation="50"/>
<feComposite in2="SourceAlpha" operator="in" result="effect1_backgroundBlur_51_35708"/>
<feBlend mode="normal" in="SourceGraphic" in2="effect1_backgroundBlur_51_35708" result="shape"/>
</filter>
<filter id="filter1_b_51_35708" x="-87.9551" y="14.7324" width="420.445" height="327.797" filterUnits="userSpaceOnUse" color-interpolation-filters="sRGB">
<feFlood flood-opacity="0" result="BackgroundImageFix"/>
<feGaussianBlur in="BackgroundImageFix" stdDeviation="50"/>
<feComposite in2="SourceAlpha" operator="in" result="effect1_backgroundBlur_51_35708"/>
<feBlend mode="normal" in="SourceGraphic" in2="effect1_backgroundBlur_51_35708" result="shape"/>
</filter>
<linearGradient id="paint0_linear_51_35708" x1="111.205" y1="216.517" x2="272.588" y2="199.466" gradientUnits="userSpaceOnUse">
<stop offset="0.232734" stop-color="#0A205F"/>
<stop offset="0.644324" stop-color="#3168DA"/>
</linearGradient>
<linearGradient id="paint1_linear_51_35708" x1="-10.7553" y1="216.517" x2="151.586" y2="199.261" gradientUnits="userSpaceOnUse">
<stop offset="0.232734" stop-color="#0A205F"/>
<stop offset="0.644324" stop-color="#3168DA"/>
</linearGradient>
<linearGradient id="paint2_linear_51_35708" x1="-56.0475" y1="88.7476" x2="56.1042" y2="329.423" gradientUnits="userSpaceOnUse">
<stop stop-color="#010D14"/>
<stop offset="0.597767" stop-color="#01124A"/>
<stop offset="0.879453" stop-color="#050F14"/>
</linearGradient>
<linearGradient id="paint3_linear_51_35708" x1="-75.2174" y1="79.3275" x2="48.4155" y2="345.394" gradientUnits="userSpaceOnUse">
<stop stop-color="#010D14"/>
<stop offset="0.155482" stop-color="#070214"/>
<stop offset="0.772926" stop-color="#050F14"/>
</linearGradient>
<linearGradient id="paint4_linear_51_35708" x1="175.09" y1="255.996" x2="129.84" y2="9.19006" gradientUnits="userSpaceOnUse">
<stop offset="0.176173" stop-color="#0C213F"/>
<stop offset="0.644324"/>
</linearGradient>
<linearGradient id="paint5_linear_51_35708" x1="61.8834" y1="195.776" x2="135.945" y2="189.903" gradientUnits="userSpaceOnUse">
<stop offset="0.232734" stop-color="#0A205F"/>
<stop offset="0.644324" stop-color="#3168DA"/>
</linearGradient>
<linearGradient id="paint6_linear_51_35708" x1="67.1175" y1="172.757" x2="177.426" y2="172.757" gradientUnits="userSpaceOnUse">
<stop stop-color="#0194FE"/>
<stop offset="1" stop-color="#290060"/>
</linearGradient>
<linearGradient id="paint7_linear_51_35708" x1="58.1185" y1="172.712" x2="201.703" y2="156.33" gradientUnits="userSpaceOnUse">
<stop offset="0.232734" stop-color="#0A205F"/>
<stop offset="0.644324" stop-color="#3168DA"/>
</linearGradient>
<linearGradient id="paint8_linear_51_35708" x1="131.274" y1="323.432" x2="142.693" y2="-25.6016" gradientUnits="userSpaceOnUse">
<stop stop-color="#0194FE"/>
<stop offset="0.852811" stop-color="#0194FE" stop-opacity="0"/>
</linearGradient>
<linearGradient id="paint9_linear_51_35708" x1="128.742" y1="284.413" x2="136.965" y2="33.0838" gradientUnits="userSpaceOnUse">
<stop stop-color="#0194FE"/>
<stop offset="0.852811" stop-color="#0194FE" stop-opacity="0"/>
</linearGradient>
<linearGradient id="paint10_linear_51_35708" x1="126.307" y1="257.14" x2="142.274" y2="-18.4651" gradientUnits="userSpaceOnUse">
<stop stop-color="#0194FE"/>
<stop offset="0.852811" stop-color="#0194FE" stop-opacity="0"/>
</linearGradient>
<linearGradient id="paint11_linear_51_35708" x1="137.694" y1="29.4194" x2="84.098" y2="109.484" gradientUnits="userSpaceOnUse">
<stop stop-color="#00EEDF"/>
<stop offset="0.442295" stop-color="#225AFF"/>
<stop offset="1" stop-color="#4003CC"/>
</linearGradient>
</defs>
</svg>
