<svg width="21" height="20" viewBox="0 0 21 20" fill="none" xmlns="http://www.w3.org/2000/svg">
<path fill-rule="evenodd" clip-rule="evenodd" d="M0.686393 11.4007C1.17693 14.9004 3.479 17.8193 6.61423 19.1789C6.75145 16.3582 7.33389 13.6481 8.29598 11.1093C7.27041 10.9134 6.20841 10.8105 5.12025 10.8105C3.58003 10.8105 2.0924 11.0167 0.686393 11.4007ZM8.09509 19.6865C8.89233 19.8912 9.72799 20 10.5891 20C13.4593 20 16.0472 18.7907 17.8709 16.8539C15.8803 14.3254 13.0533 12.4055 9.76784 11.4606C8.76799 14.0394 8.18529 16.8055 8.09509 19.6865ZM18.8349 15.6591C19.9414 14.0499 20.5891 12.1006 20.5891 10C20.5891 9.82402 20.5845 9.64911 20.5756 9.47537C19.5109 9.66817 18.4121 9.76901 17.289 9.76901C15.09 9.76901 12.9847 9.38241 11.0464 8.67633C10.8022 9.13339 10.5717 9.59803 10.3556 10.0698C13.7507 11.0832 16.6977 13.0569 18.8349 15.6591ZM20.386 7.98511C19.8662 5.44442 18.383 3.25468 16.3346 1.81429C14.576 3.45944 13.0496 5.32153 11.8042 7.35377C13.512 7.94544 15.3594 8.26901 17.289 8.26901C18.3495 8.26901 19.385 8.17129 20.386 7.98511ZM14.9933 1.01958C13.6645 0.366668 12.1696 0 10.5891 0C8.27354 0 6.14181 0.787011 4.4468 2.10813C5.97713 4.09221 8.01845 5.71043 10.3921 6.78971C11.6589 4.67863 13.2092 2.73991 14.9933 1.01958ZM3.33278 3.11912C1.65895 4.88369 0.621938 7.25829 0.589844 9.87484C2.0349 9.50669 3.55388 9.31052 5.12025 9.31052C6.41013 9.31052 7.66776 9.44354 8.87837 9.69603C9.11944 9.15546 9.37806 8.62362 9.65357 8.10114C7.14789 6.93971 4.98054 5.22365 3.33278 3.11912Z" fill="white"/>
</svg>
