<svg width="91" height="88" viewBox="0 0 91 88" fill="none" xmlns="http://www.w3.org/2000/svg">
<rect x="20" y="20.0098" width="48" height="48" rx="24" fill="url(#paint0_linear_239_522)"/>
<path d="M43.6903 54.2498C42.5703 54.2498 41.5383 54.0258 40.5943 53.5778C39.6663 53.1298 38.9623 52.5298 38.4823 51.7778L39.5383 50.3618C40.0023 51.0178 40.5863 51.5298 41.2903 51.8978C42.0103 52.2498 42.7863 52.4258 43.6183 52.4258C44.7383 52.4258 45.6183 52.0738 46.2583 51.3698C46.9143 50.6498 47.2423 49.6818 47.2423 48.4658C47.2423 47.2978 46.9463 46.3778 46.3543 45.7058C45.7623 45.0178 44.9623 44.6738 43.9543 44.6738C43.3303 44.6738 42.7383 44.8258 42.1783 45.1298C41.6343 45.4178 41.2103 45.8098 40.9063 46.3058H39.0583L39.8503 37.2098H48.9463V39.0338H41.8423L41.4103 43.9298C41.7303 43.6258 42.1703 43.3858 42.7303 43.2098C43.3063 43.0338 43.8983 42.9458 44.5063 42.9458C46.0263 42.9458 47.2423 43.4418 48.1543 44.4338C49.0663 45.4258 49.5223 46.7538 49.5223 48.4178C49.5223 49.5858 49.2823 50.6098 48.8023 51.4898C48.3223 52.3698 47.6423 53.0498 46.7623 53.5298C45.8823 54.0098 44.8583 54.2498 43.6903 54.2498Z" fill="white"/>
<path d="M2.27556 33.1672C2.16835 33.5673 2.40579 33.9786 2.80589 34.0858C3.20599 34.193 3.61724 33.9555 3.72444 33.5554L2.27556 33.1672ZM84.9947 33.8494C87.1286 34.4212 89.3219 33.1549 89.8937 31.021C90.4654 28.8871 89.1991 26.6938 87.0652 26.122C84.9314 25.5503 82.738 26.8166 82.1663 28.9504C81.5945 31.0843 82.8608 33.2777 84.9947 33.8494ZM3.72444 33.5554C9.85888 10.6614 33.3177 -2.93945 56.1169 3.16958L56.5052 1.72069C32.9005 -4.60416 8.62299 9.47825 2.27556 33.1672L3.72444 33.5554ZM56.1169 3.16958C70.227 6.95036 80.7811 17.394 85.3229 30.2358L86.737 29.7357C82.0381 16.4494 71.1142 5.63517 56.5052 1.72069L56.1169 3.16958Z" fill="url(#paint1_linear_239_522)"/>
<path d="M88.6488 54.9129C88.756 54.5128 88.5185 54.1015 88.1184 53.9943C87.7183 53.8871 87.3071 54.1245 87.1999 54.5246L88.6488 54.9129ZM5.92963 54.2307C3.79577 53.6589 1.60242 54.9252 1.03065 57.0591C0.458882 59.1929 1.72521 61.3863 3.85908 61.9581C5.99294 62.5298 8.18629 61.2635 8.75806 59.1296C9.32982 56.9958 8.06349 54.8024 5.92963 54.2307ZM87.1999 54.5246C81.0654 77.4187 57.6066 91.0195 34.8074 84.9105L34.4192 86.3594C58.0238 92.6842 82.3013 78.6018 88.6488 54.9129L87.1999 54.5246ZM34.8074 84.9105C20.6973 81.1297 10.1432 70.6861 5.60143 57.8443L4.18727 58.3444C8.88622 71.6307 19.8101 82.4449 34.4192 86.3594L34.8074 84.9105Z" fill="url(#paint2_linear_239_522)"/>
<defs>
<linearGradient id="paint0_linear_239_522" x1="51.1312" y1="22.4651" x2="28.3104" y2="63.3355" gradientUnits="userSpaceOnUse">
<stop stop-color="#225AFF"/>
<stop offset="0.903151" stop-color="#4003CC"/>
</linearGradient>
<linearGradient id="paint1_linear_239_522" x1="3" y1="34.1875" x2="52.2203" y2="72.6431" gradientUnits="userSpaceOnUse">
<stop stop-color="#00EEDF"/>
<stop offset="0.442295" stop-color="#225AFF"/>
<stop offset="1" stop-color="#4003CC"/>
</linearGradient>
<linearGradient id="paint2_linear_239_522" x1="76.6759" y1="81.0205" x2="58.538" y2="25.8801" gradientUnits="userSpaceOnUse">
<stop offset="0.00106095" stop-color="#4003CC"/>
<stop offset="0.442295" stop-color="#225AFF"/>
<stop offset="1" stop-color="#00EEDF"/>
</linearGradient>
</defs>
</svg>
