<svg width="91" height="88" viewBox="0 0 91 88" fill="none" xmlns="http://www.w3.org/2000/svg">
<rect x="20" y="20.0098" width="48" height="48" rx="24" fill="url(#paint0_linear_239_621)"/>
<path d="M44.0023 54.2498C42.2423 54.2498 40.8583 53.8258 39.8503 52.9778C38.8583 52.1138 38.3623 50.9298 38.3623 49.4258C38.3623 48.4338 38.6023 47.5538 39.0823 46.7858C39.5623 46.0178 40.2503 45.4418 41.1463 45.0578C40.4743 44.7698 39.9383 44.2818 39.5383 43.5938C39.1383 42.8898 38.9383 42.1218 38.9383 41.2898C38.9383 39.9778 39.3943 38.9298 40.3063 38.1458C41.2343 37.3618 42.4663 36.9698 44.0023 36.9698C45.5383 36.9698 46.7623 37.3618 47.6743 38.1458C48.6023 38.9298 49.0663 39.9778 49.0663 41.2898C49.0663 42.1218 48.8663 42.8898 48.4663 43.5938C48.0663 44.2818 47.5303 44.7698 46.8583 45.0578C47.7543 45.4418 48.4423 46.0178 48.9223 46.7858C49.4023 47.5538 49.6423 48.4338 49.6423 49.4258C49.6423 50.9298 49.1383 52.1138 48.1303 52.9778C47.1383 53.8258 45.7623 54.2498 44.0023 54.2498ZM44.0023 44.2418C44.8823 44.2418 45.5783 43.9938 46.0903 43.4978C46.6023 43.0018 46.8583 42.3378 46.8583 41.5058C46.8583 40.6898 46.6023 40.0338 46.0903 39.5378C45.5783 39.0418 44.8823 38.7938 44.0023 38.7938C43.1223 38.7938 42.4263 39.0418 41.9143 39.5378C41.4023 40.0338 41.1463 40.6898 41.1463 41.5058C41.1463 42.3378 41.4023 43.0018 41.9143 43.4978C42.4263 43.9938 43.1223 44.2418 44.0023 44.2418ZM44.0023 52.4258C45.0743 52.4258 45.9143 52.1378 46.5223 51.5618C47.1303 50.9698 47.4343 50.1618 47.4343 49.1378C47.4343 48.1138 47.1303 47.3218 46.5223 46.7618C45.9143 46.1858 45.0743 45.8978 44.0023 45.8978C42.9303 45.8978 42.0903 46.1858 41.4823 46.7618C40.8743 47.3218 40.5703 48.1138 40.5703 49.1378C40.5703 50.1618 40.8743 50.9698 41.4823 51.5618C42.0903 52.1378 42.9303 52.4258 44.0023 52.4258Z" fill="white"/>
<path d="M2.27556 33.1672C2.16835 33.5673 2.40579 33.9786 2.80589 34.0858C3.20599 34.193 3.61724 33.9555 3.72444 33.5554L2.27556 33.1672ZM84.9947 33.8494C87.1286 34.4212 89.3219 33.1549 89.8937 31.021C90.4654 28.8871 89.1991 26.6938 87.0652 26.122C84.9314 25.5503 82.738 26.8166 82.1663 28.9504C81.5945 31.0843 82.8608 33.2777 84.9947 33.8494ZM3.72444 33.5554C9.85888 10.6614 33.3177 -2.93945 56.1169 3.16958L56.5052 1.72069C32.9005 -4.60416 8.62299 9.47825 2.27556 33.1672L3.72444 33.5554ZM56.1169 3.16958C70.227 6.95036 80.7811 17.394 85.3229 30.2358L86.737 29.7357C82.0381 16.4494 71.1142 5.63517 56.5052 1.72069L56.1169 3.16958Z" fill="url(#paint1_linear_239_621)"/>
<path d="M88.6488 54.9129C88.756 54.5128 88.5185 54.1015 88.1184 53.9943C87.7183 53.8871 87.3071 54.1245 87.1999 54.5246L88.6488 54.9129ZM5.92963 54.2307C3.79577 53.6589 1.60242 54.9252 1.03065 57.0591C0.458882 59.1929 1.72521 61.3863 3.85908 61.9581C5.99294 62.5298 8.18629 61.2635 8.75806 59.1296C9.32982 56.9958 8.06349 54.8024 5.92963 54.2307ZM87.1999 54.5246C81.0654 77.4187 57.6066 91.0195 34.8074 84.9105L34.4192 86.3594C58.0238 92.6842 82.3013 78.6018 88.6488 54.9129L87.1999 54.5246ZM34.8074 84.9105C20.6973 81.1297 10.1432 70.6861 5.60143 57.8443L4.18727 58.3444C8.88622 71.6307 19.8101 82.4449 34.4192 86.3594L34.8074 84.9105Z" fill="url(#paint2_linear_239_621)"/>
<defs>
<linearGradient id="paint0_linear_239_621" x1="51.1312" y1="22.4651" x2="28.3104" y2="63.3355" gradientUnits="userSpaceOnUse">
<stop stop-color="#225AFF"/>
<stop offset="0.903151" stop-color="#4003CC"/>
</linearGradient>
<linearGradient id="paint1_linear_239_621" x1="3" y1="34.1875" x2="52.2203" y2="72.6431" gradientUnits="userSpaceOnUse">
<stop stop-color="#00EEDF"/>
<stop offset="0.442295" stop-color="#225AFF"/>
<stop offset="1" stop-color="#4003CC"/>
</linearGradient>
<linearGradient id="paint2_linear_239_621" x1="76.6759" y1="81.0205" x2="58.538" y2="25.8801" gradientUnits="userSpaceOnUse">
<stop offset="0.00106095" stop-color="#4003CC"/>
<stop offset="0.442295" stop-color="#225AFF"/>
<stop offset="1" stop-color="#00EEDF"/>
</linearGradient>
</defs>
</svg>
