<svg width="91" height="88" viewBox="0 0 91 88" fill="none" xmlns="http://www.w3.org/2000/svg">
<rect x="20" y="20.0098" width="48" height="48" rx="24" fill="url(#paint0_linear_239_555)"/>
<path d="M44.1463 54.2498C42.9943 54.2498 41.9943 53.9858 41.1463 53.4578C40.2983 52.9298 39.6423 52.1858 39.1783 51.2258C38.7143 50.2658 38.4823 49.1538 38.4823 47.8898C38.4823 46.1298 38.9063 44.4578 39.7543 42.8738C40.6023 41.2898 41.7623 39.9698 43.2343 38.9138C44.7063 37.8418 46.3223 37.1778 48.0823 36.9218L48.2983 38.6258C46.7463 38.9778 45.3463 39.6738 44.0983 40.7138C42.8503 41.7378 41.9783 42.9538 41.4823 44.3618C41.7223 44.0418 42.0983 43.7778 42.6103 43.5698C43.1223 43.3458 43.6903 43.2338 44.3143 43.2338C45.4023 43.2338 46.3383 43.4738 47.1223 43.9538C47.9223 44.4338 48.5223 45.0898 48.9223 45.9218C49.3383 46.7538 49.5463 47.6978 49.5463 48.7538C49.5463 49.8098 49.3223 50.7538 48.8743 51.5858C48.4423 52.4178 47.8183 53.0738 47.0023 53.5538C46.2023 54.0178 45.2503 54.2498 44.1463 54.2498ZM44.0983 52.4258C45.1063 52.4258 45.9063 52.0978 46.4983 51.4418C47.0903 50.7698 47.3863 49.8658 47.3863 48.7298C47.3863 47.6098 47.0903 46.7218 46.4983 46.0658C45.9063 45.3938 45.1063 45.0578 44.0983 45.0578C43.1063 45.0578 42.3063 45.3938 41.6983 46.0658C41.1063 46.7218 40.8103 47.6098 40.8103 48.7298C40.8103 49.8498 41.1063 50.7458 41.6983 51.4178C42.3063 52.0898 43.1063 52.4258 44.0983 52.4258Z" fill="white"/>
<path d="M2.27556 33.1672C2.16835 33.5673 2.40579 33.9786 2.80589 34.0858C3.20599 34.193 3.61724 33.9555 3.72444 33.5554L2.27556 33.1672ZM84.9947 33.8494C87.1286 34.4212 89.3219 33.1549 89.8937 31.021C90.4654 28.8871 89.1991 26.6938 87.0652 26.122C84.9314 25.5503 82.738 26.8166 82.1663 28.9504C81.5945 31.0843 82.8608 33.2777 84.9947 33.8494ZM3.72444 33.5554C9.85888 10.6614 33.3177 -2.93945 56.1169 3.16958L56.5052 1.72069C32.9005 -4.60416 8.62299 9.47825 2.27556 33.1672L3.72444 33.5554ZM56.1169 3.16958C70.227 6.95036 80.7811 17.394 85.3229 30.2358L86.737 29.7357C82.0381 16.4494 71.1142 5.63517 56.5052 1.72069L56.1169 3.16958Z" fill="url(#paint1_linear_239_555)"/>
<path d="M88.6488 54.9129C88.756 54.5128 88.5185 54.1015 88.1184 53.9943C87.7183 53.8871 87.3071 54.1245 87.1999 54.5246L88.6488 54.9129ZM5.92963 54.2307C3.79577 53.6589 1.60242 54.9252 1.03065 57.0591C0.458882 59.1929 1.72521 61.3863 3.85908 61.9581C5.99294 62.5298 8.18629 61.2635 8.75806 59.1296C9.32982 56.9958 8.06349 54.8024 5.92963 54.2307ZM87.1999 54.5246C81.0654 77.4187 57.6066 91.0195 34.8074 84.9105L34.4192 86.3594C58.0238 92.6842 82.3013 78.6018 88.6488 54.9129L87.1999 54.5246ZM34.8074 84.9105C20.6973 81.1297 10.1432 70.6861 5.60143 57.8443L4.18727 58.3444C8.88622 71.6307 19.8101 82.4449 34.4192 86.3594L34.8074 84.9105Z" fill="url(#paint2_linear_239_555)"/>
<defs>
<linearGradient id="paint0_linear_239_555" x1="51.1312" y1="22.4651" x2="28.3104" y2="63.3355" gradientUnits="userSpaceOnUse">
<stop stop-color="#225AFF"/>
<stop offset="0.903151" stop-color="#4003CC"/>
</linearGradient>
<linearGradient id="paint1_linear_239_555" x1="3" y1="34.1875" x2="52.2203" y2="72.6431" gradientUnits="userSpaceOnUse">
<stop stop-color="#00EEDF"/>
<stop offset="0.442295" stop-color="#225AFF"/>
<stop offset="1" stop-color="#4003CC"/>
</linearGradient>
<linearGradient id="paint2_linear_239_555" x1="76.6759" y1="81.0205" x2="58.538" y2="25.8801" gradientUnits="userSpaceOnUse">
<stop offset="0.00106095" stop-color="#4003CC"/>
<stop offset="0.442295" stop-color="#225AFF"/>
<stop offset="1" stop-color="#00EEDF"/>
</linearGradient>
</defs>
</svg>
