<svg width="91" height="88" viewBox="0 0 91 88" fill="none" xmlns="http://www.w3.org/2000/svg">
<rect x="20" y="20.0098" width="48" height="48" rx="24" fill="url(#paint0_linear_239_588)"/>
<path d="M41.8663 54.0098C41.9143 52.0738 42.0743 50.3058 42.3463 48.7058C42.6343 47.0898 43.1303 45.4658 43.8343 43.8338C44.5383 42.2018 45.5303 40.6018 46.8103 39.0338H38.6743V37.2098H49.3543V38.9858C47.6423 40.8578 46.3383 43.0578 45.4423 45.5858C44.5463 48.1138 44.0983 50.9218 44.0983 54.0098H41.8663Z" fill="white"/>
<path d="M2.27556 33.1672C2.16835 33.5673 2.40579 33.9786 2.80589 34.0858C3.20599 34.193 3.61724 33.9555 3.72444 33.5554L2.27556 33.1672ZM84.9947 33.8494C87.1286 34.4212 89.3219 33.1549 89.8937 31.021C90.4654 28.8871 89.1991 26.6938 87.0652 26.122C84.9314 25.5503 82.738 26.8166 82.1663 28.9504C81.5945 31.0843 82.8608 33.2777 84.9947 33.8494ZM3.72444 33.5554C9.85888 10.6614 33.3177 -2.93945 56.1169 3.16958L56.5052 1.72069C32.9005 -4.60416 8.62299 9.47825 2.27556 33.1672L3.72444 33.5554ZM56.1169 3.16958C70.227 6.95036 80.7811 17.394 85.3229 30.2358L86.737 29.7357C82.0381 16.4494 71.1142 5.63517 56.5052 1.72069L56.1169 3.16958Z" fill="url(#paint1_linear_239_588)"/>
<path d="M88.6488 54.9129C88.756 54.5128 88.5185 54.1015 88.1184 53.9943C87.7183 53.8871 87.3071 54.1245 87.1999 54.5246L88.6488 54.9129ZM5.92963 54.2307C3.79577 53.6589 1.60242 54.9252 1.03065 57.0591C0.458882 59.1929 1.72521 61.3863 3.85908 61.9581C5.99294 62.5298 8.18629 61.2635 8.75806 59.1296C9.32982 56.9958 8.06349 54.8024 5.92963 54.2307ZM87.1999 54.5246C81.0654 77.4187 57.6066 91.0195 34.8074 84.9105L34.4192 86.3594C58.0238 92.6842 82.3013 78.6018 88.6488 54.9129L87.1999 54.5246ZM34.8074 84.9105C20.6973 81.1297 10.1432 70.6861 5.60143 57.8443L4.18727 58.3444C8.88622 71.6307 19.8101 82.4449 34.4192 86.3594L34.8074 84.9105Z" fill="url(#paint2_linear_239_588)"/>
<defs>
<linearGradient id="paint0_linear_239_588" x1="51.1312" y1="22.4651" x2="28.3104" y2="63.3355" gradientUnits="userSpaceOnUse">
<stop stop-color="#225AFF"/>
<stop offset="0.903151" stop-color="#4003CC"/>
</linearGradient>
<linearGradient id="paint1_linear_239_588" x1="3" y1="34.1875" x2="52.2203" y2="72.6431" gradientUnits="userSpaceOnUse">
<stop stop-color="#00EEDF"/>
<stop offset="0.442295" stop-color="#225AFF"/>
<stop offset="1" stop-color="#4003CC"/>
</linearGradient>
<linearGradient id="paint2_linear_239_588" x1="76.6759" y1="81.0205" x2="58.538" y2="25.8801" gradientUnits="userSpaceOnUse">
<stop offset="0.00106095" stop-color="#4003CC"/>
<stop offset="0.442295" stop-color="#225AFF"/>
<stop offset="1" stop-color="#00EEDF"/>
</linearGradient>
</defs>
</svg>
