<svg width="24" height="24" viewBox="0 0 24 24" fill="none" xmlns="http://www.w3.org/2000/svg">
<path d="M0 4.5C0 2.84531 1.34531 1.5 3 1.5H21C22.6547 1.5 24 2.84531 24 4.5V19.5C24 21.1547 22.6547 22.5 21 22.5H3C1.34531 22.5 0 21.1547 0 19.5V4.5ZM15.1781 9.49219C14.9672 9.18281 14.6203 9 14.25 9C13.8797 9 13.5281 9.18281 13.3219 9.49219L9.24375 15.4734L8.00156 13.9219C7.78594 13.6547 7.4625 13.5 7.125 13.5C6.7875 13.5 6.45938 13.6547 6.24844 13.9219L3.24844 17.6719C2.97656 18.0094 2.925 18.4734 3.1125 18.8625C3.3 19.2516 3.69375 19.5 4.125 19.5H8.625H10.125H19.875C20.2922 19.5 20.6766 19.2703 20.8688 18.9C21.0609 18.5297 21.0375 18.0844 20.8031 17.7422L15.1781 9.49219ZM5.25 9C5.84674 9 6.41903 8.76295 6.84099 8.34099C7.26295 7.91903 7.5 7.34674 7.5 6.75C7.5 6.15326 7.26295 5.58097 6.84099 5.15901C6.41903 4.73705 5.84674 4.5 5.25 4.5C4.65326 4.5 4.08097 4.73705 3.65901 5.15901C3.23705 5.58097 3 6.15326 3 6.75C3 7.34674 3.23705 7.91903 3.65901 8.34099C4.08097 8.76295 4.65326 9 5.25 9Z" fill="white"/>
</svg>
