<svg width="91" height="88" viewBox="0 0 91 88" fill="none" xmlns="http://www.w3.org/2000/svg">
<rect x="20" y="20" width="48" height="48" rx="24" fill="url(#paint0_linear_113_97052)"/>
<path d="M45.8023 51.12H38.0983V49.248L45.3223 37.2H48.0103V49.296H49.9063V51.12H48.0103V54H45.8023V51.12ZM45.8023 49.296V39.768L40.1143 49.296H45.8023Z" fill="white"/>
<path d="M2.27556 33.1574C2.16835 33.5575 2.40579 33.9688 2.80589 34.076C3.20599 34.1832 3.61724 33.9458 3.72444 33.5457L2.27556 33.1574ZM84.9947 33.8397C87.1286 34.4114 89.3219 33.1451 89.8937 31.0112C90.4654 28.8774 89.1991 26.684 87.0652 26.1123C84.9314 25.5405 82.738 26.8068 82.1663 28.9407C81.5945 31.0745 82.8608 33.2679 84.9947 33.8397ZM3.72444 33.5457C9.85888 10.6516 33.3177 -2.94922 56.1169 3.15982L56.5052 1.71093C32.9005 -4.61393 8.62299 9.46849 2.27556 33.1574L3.72444 33.5457ZM56.1169 3.15982C70.227 6.9406 80.7811 17.3843 85.3229 30.226L86.737 29.7259C82.0381 16.4396 71.1142 5.62541 56.5052 1.71093L56.1169 3.15982Z" fill="url(#paint1_linear_113_97052)"/>
<path d="M88.6483 54.9031C88.7555 54.503 88.518 54.0917 88.1179 53.9845C87.7178 53.8773 87.3066 54.1148 87.1994 54.5149L88.6483 54.9031ZM5.92914 54.2209C3.79528 53.6491 1.60193 54.9155 1.03016 57.0493C0.458394 59.1832 1.72472 61.3765 3.85859 61.9483C5.99245 62.5201 8.1858 61.2537 8.75757 59.1199C9.32933 56.986 8.063 54.7927 5.92914 54.2209ZM87.1994 54.5149C81.0649 77.4089 57.6061 91.0098 34.8069 84.9007L34.4187 86.3496C58.0233 92.6745 82.3008 78.5921 88.6483 54.9031L87.1994 54.5149ZM34.8069 84.9007C20.6968 81.12 10.1427 70.6763 5.60095 57.8345L4.18678 58.3347C8.88573 71.6209 19.8096 82.4351 34.4187 86.3496L34.8069 84.9007Z" fill="url(#paint2_linear_113_97052)"/>
<defs>
<linearGradient id="paint0_linear_113_97052" x1="51.1312" y1="22.4553" x2="28.3104" y2="63.3257" gradientUnits="userSpaceOnUse">
<stop stop-color="#225AFF"/>
<stop offset="0.903151" stop-color="#4003CC"/>
</linearGradient>
<linearGradient id="paint1_linear_113_97052" x1="3" y1="34.1777" x2="52.2203" y2="72.6333" gradientUnits="userSpaceOnUse">
<stop stop-color="#00EEDF"/>
<stop offset="0.442295" stop-color="#225AFF"/>
<stop offset="1" stop-color="#4003CC"/>
</linearGradient>
<linearGradient id="paint2_linear_113_97052" x1="76.6754" y1="81.0108" x2="58.5375" y2="25.8703" gradientUnits="userSpaceOnUse">
<stop offset="0.00106095" stop-color="#4003CC"/>
<stop offset="0.442295" stop-color="#225AFF"/>
<stop offset="1" stop-color="#00EEDF"/>
</linearGradient>
</defs>
</svg>
