<svg width="91" height="88" viewBox="0 0 91 88" fill="none" xmlns="http://www.w3.org/2000/svg">
<rect x="20" y="20" width="48" height="48" rx="24" fill="url(#paint0_linear_113_97034)"/>
<path d="M46.7523 54.24C45.5683 54.24 44.5043 54.024 43.5603 53.592C42.6323 53.144 41.9443 52.536 41.4963 51.768L42.6003 50.472C43.0163 51.064 43.5923 51.536 44.3283 51.888C45.0803 52.24 45.8643 52.416 46.6803 52.416C47.7363 52.416 48.5763 52.128 49.2003 51.552C49.8403 50.976 50.1603 50.232 50.1603 49.32C50.1603 48.312 49.7603 47.52 48.9603 46.944C48.1763 46.368 47.0963 46.08 45.7203 46.08H44.8563V44.328H45.6963C46.8643 44.328 47.8003 44.04 48.5043 43.464C49.2083 42.872 49.5603 42.112 49.5603 41.184C49.5603 40.416 49.3123 39.824 48.8163 39.408C48.3203 38.992 47.6243 38.784 46.7283 38.784C45.9123 38.784 45.1523 38.96 44.4483 39.312C43.7443 39.648 43.1763 40.12 42.7443 40.728L41.6643 39.432C42.1763 38.664 42.8963 38.064 43.8243 37.632C44.7683 37.184 45.8003 36.96 46.9203 36.96C48.3763 36.96 49.5443 37.328 50.4243 38.064C51.3203 38.784 51.7683 39.744 51.7683 40.944C51.7683 41.888 51.4803 42.736 50.9043 43.488C50.3443 44.224 49.5603 44.768 48.5523 45.12C49.7843 45.392 50.7283 45.904 51.3843 46.656C52.0563 47.392 52.3923 48.312 52.3923 49.416C52.3923 50.36 52.1603 51.2 51.6963 51.936C51.2323 52.656 50.5683 53.224 49.7043 53.64C48.8563 54.04 47.8723 54.24 46.7523 54.24Z" fill="white"/>
<path d="M2.27556 33.1574C2.16835 33.5575 2.40579 33.9688 2.80589 34.076C3.20599 34.1832 3.61724 33.9458 3.72444 33.5457L2.27556 33.1574ZM84.9947 33.8397C87.1286 34.4114 89.3219 33.1451 89.8937 31.0112C90.4654 28.8774 89.1991 26.684 87.0652 26.1123C84.9314 25.5405 82.738 26.8068 82.1663 28.9407C81.5945 31.0745 82.8608 33.2679 84.9947 33.8397ZM3.72444 33.5457C9.85888 10.6516 33.3177 -2.94922 56.1169 3.15982L56.5052 1.71093C32.9005 -4.61393 8.62299 9.46849 2.27556 33.1574L3.72444 33.5457ZM56.1169 3.15982C70.227 6.9406 80.7811 17.3843 85.3229 30.226L86.737 29.7259C82.0381 16.4396 71.1142 5.62541 56.5052 1.71093L56.1169 3.15982Z" fill="url(#paint1_linear_113_97034)"/>
<path d="M88.6483 54.9031C88.7555 54.503 88.518 54.0917 88.1179 53.9845C87.7178 53.8773 87.3066 54.1148 87.1994 54.5149L88.6483 54.9031ZM5.92914 54.2209C3.79528 53.6491 1.60193 54.9155 1.03016 57.0493C0.458394 59.1832 1.72472 61.3765 3.85859 61.9483C5.99245 62.5201 8.1858 61.2537 8.75757 59.1199C9.32933 56.986 8.063 54.7927 5.92914 54.2209ZM87.1994 54.5149C81.0649 77.4089 57.6061 91.0098 34.8069 84.9007L34.4187 86.3496C58.0233 92.6745 82.3008 78.5921 88.6483 54.9031L87.1994 54.5149ZM34.8069 84.9007C20.6968 81.12 10.1427 70.6763 5.60095 57.8345L4.18678 58.3347C8.88573 71.6209 19.8096 82.4351 34.4187 86.3496L34.8069 84.9007Z" fill="url(#paint2_linear_113_97034)"/>
<defs>
<linearGradient id="paint0_linear_113_97034" x1="51.1312" y1="22.4553" x2="28.3104" y2="63.3257" gradientUnits="userSpaceOnUse">
<stop stop-color="#225AFF"/>
<stop offset="0.903151" stop-color="#4003CC"/>
</linearGradient>
<linearGradient id="paint1_linear_113_97034" x1="3" y1="34.1777" x2="52.2203" y2="72.6333" gradientUnits="userSpaceOnUse">
<stop stop-color="#00EEDF"/>
<stop offset="0.442295" stop-color="#225AFF"/>
<stop offset="1" stop-color="#4003CC"/>
</linearGradient>
<linearGradient id="paint2_linear_113_97034" x1="76.6754" y1="81.0108" x2="58.5375" y2="25.8703" gradientUnits="userSpaceOnUse">
<stop offset="0.00106095" stop-color="#4003CC"/>
<stop offset="0.442295" stop-color="#225AFF"/>
<stop offset="1" stop-color="#00EEDF"/>
</linearGradient>
</defs>
</svg>
