<svg width="46" height="44" viewBox="0 0 46 44" fill="none" xmlns="http://www.w3.org/2000/svg">
<path d="M21 43C15.9666 43 8.11111 43 8.11111 43C8.11111 43 8.11111 43 8.11111 43C4.18375 43 1 39.5811 1 35.3636V8.63636C1 4.41892 4.18375 1 8.11111 1H21" stroke="url(#paint0_linear_381_20422)" stroke-width="2"/>
<path d="M21 2H25V-2H21V2ZM25 42H21V46H25V42Z" fill="url(#paint1_angular_381_20422)" mask="url(#path-2-inside-1_381_20422)"/>
<rect x="13" y="16" width="20" height="2" rx="1" fill="white"/>
<rect x="13" y="26" width="20" height="2" rx="1" fill="white"/>
<path d="M25 43H30.0282H37.2396C41.5255 43 45 39.5811 45 35.3636V16.8586C45 14.5929 43.9776 12.4442 42.2091 10.9933L32.187 2.77111C30.7921 1.62674 29.0336 1 27.2175 1H25" stroke="url(#paint2_linear_381_20422)" stroke-width="2"/>
<defs>
<linearGradient id="paint0_linear_381_20422" x1="11" y1="1" x2="11" y2="43" gradientUnits="userSpaceOnUse">
<stop stop-color="#89F9E8"/>
<stop offset="1" stop-color="#FACB7B"/>
</linearGradient>
<radialGradient id="paint1_angular_381_20422" cx="0" cy="0" r="1" gradientUnits="userSpaceOnUse" gradientTransform="translate(23 22) rotate(90) scale(22 2)">
<stop offset="0.130059" stop-color="#FACB7C"/>
<stop offset="0.358399" stop-color="#89F9E8"/>
<stop offset="0.629894" stop-color="#9299FC"/>
<stop offset="0.880516" stop-color="#D77DEE"/>
</radialGradient>
<linearGradient id="paint2_linear_381_20422" x1="27.9268" y1="1" x2="27.9268" y2="43" gradientUnits="userSpaceOnUse">
<stop stop-color="#9099FC"/>
<stop offset="1" stop-color="#D87CEE"/>
</linearGradient>
</defs>
</svg>
