<svg width="48" height="48" viewBox="0 0 48 48" fill="none" xmlns="http://www.w3.org/2000/svg">
<g filter="url(#filter0_b_71_35346)">
<path d="M48 24C48 37.2548 37.2548 48 24 48C10.7452 48 0 37.2548 0 24C0 10.7452 10.7452 0 24 0C37.2548 0 48 10.7452 48 24Z" fill="#C7E1DB" fill-opacity="0.11"/>
</g>
<path d="M29.1911 18.3965C28.9339 18.3965 28.7246 18.5964 28.7246 18.842C28.7246 19.0877 28.9339 19.2876 29.1911 19.2876C29.4483 19.2876 29.6575 19.0877 29.6575 18.842C29.6575 18.5964 29.4483 18.3965 29.1911 18.3965Z" fill="#00EEDF"/>
<path d="M27.9462 15H19.267C16.3628 15 14 17.257 14 20.0312V28.3218C14 31.096 16.3628 33.3529 19.267 33.3529H27.9462C30.8505 33.3529 33.2132 31.096 33.2132 28.3218V20.0312C33.2132 17.257 30.8505 15 27.9462 15ZM23.6066 29.2103C20.7008 29.2103 18.3368 26.9522 18.3368 24.1765C18.3368 21.4008 20.7008 19.1427 23.6066 19.1427C26.5124 19.1427 28.8764 21.4008 28.8764 24.1765C28.8764 26.9521 26.5124 29.2103 23.6066 29.2103ZM29.1916 20.371C28.3088 20.371 27.5905 19.6849 27.5905 18.8416C27.5905 17.9983 28.3088 17.3121 29.1916 17.3121C30.0745 17.3121 30.7927 17.9982 30.7927 18.8415C30.7927 19.6848 30.0745 20.371 29.1916 20.371Z" fill="#00EEDF"/>
<path d="M23.6059 20.2266C21.3258 20.2266 19.4707 21.9986 19.4707 24.1766C19.4707 26.3547 21.3258 28.1267 23.6059 28.1267C25.8861 28.1267 27.7411 26.3547 27.7411 24.1766C27.7411 21.9986 25.8861 20.2266 23.6059 20.2266Z" fill="#00EEDF"/>
<defs>
<filter id="filter0_b_71_35346" x="-50" y="-50" width="148" height="148" filterUnits="userSpaceOnUse" color-interpolation-filters="sRGB">
<feFlood flood-opacity="0" result="BackgroundImageFix"/>
<feGaussianBlur in="BackgroundImageFix" stdDeviation="25"/>
<feComposite in2="SourceAlpha" operator="in" result="effect1_backgroundBlur_71_35346"/>
<feBlend mode="normal" in="SourceGraphic" in2="effect1_backgroundBlur_71_35346" result="shape"/>
</filter>
</defs>
</svg>
