<svg width="177" height="48" viewBox="0 0 177 48" fill="none" xmlns="http://www.w3.org/2000/svg">
<g clip-path="url(#clip0_5_65623)">
<path fill-rule="evenodd" clip-rule="evenodd" d="M48 40.9153C48 40.9153 33.629 11.5941 32.724 9.78412C29.4661 3.26828 19.3303 2.68909 15.7828 9.78412C15.0806 11.1884 3.04072 35.6062 0 42.0737C5.14027 44.0285 10.9321 42.5081 13.4661 37.223C14.4283 35.2987 15.9306 32.1491 17.5617 28.7297C19.9806 23.6587 22.6826 17.9942 24.3258 14.852L30.914 28.3905C27.4389 25.8565 20.026 28.4053 19.1131 30.3452C18.2002 32.2851 14.5832 39.8946 13.6833 40.6257C12.5249 41.5669 19.1131 39.4674 23.095 36.9334C26.8597 34.5377 32.362 34.6167 36.9955 40.9153H48ZM34.0995 19.4131C34.0995 19.8584 33.9559 20.2703 33.7124 20.6048L43.6561 40.9153H41.5566L32.0305 21.4398C30.9303 21.4175 30.0452 20.5186 30.0452 19.4131C30.0452 18.2935 30.9528 17.3859 32.0724 17.3859C33.192 17.3859 34.0995 18.2935 34.0995 19.4131Z" fill="url(#paint0_linear_5_65623)"/>
</g>
<path d="M72.6281 31.088H66.1881L65.3201 34H60.6161L67.4481 14.4H71.3681L78.2001 34H73.4961L72.6281 31.088ZM71.5361 27.504L69.4081 20.448L67.2801 27.504H71.5361ZM81.9871 14.4H86.4951V34H81.9871V14.4ZM102.287 31.088H95.8473L94.9793 34H90.2753L97.1073 14.4H101.027L107.859 34H103.155L102.287 31.088ZM101.195 27.504L99.0673 20.448L96.9393 27.504H101.195ZM115.874 16.08H109.742V14.4H124.022V16.08H117.946V34H115.874V16.08ZM127.939 14.4H139.251V16.136H130.011V22.8H138.271V24.564H130.011V32.264H139.251V34H127.939V14.4ZM151.092 34.28C149.412 34.28 147.947 33.8787 146.696 33.076C145.464 32.2547 144.512 31.088 143.84 29.576C143.168 28.064 142.832 26.272 142.832 24.2C142.832 22.1467 143.168 20.364 143.84 18.852C144.531 17.34 145.511 16.1733 146.78 15.352C148.049 14.5307 149.533 14.12 151.232 14.12C152.52 14.12 153.687 14.3813 154.732 14.904C155.777 15.408 156.571 16.1173 157.112 17.032L155.964 18.264C154.919 16.6587 153.36 15.856 151.288 15.856C149.272 15.856 147.704 16.584 146.584 18.04C145.483 19.496 144.932 21.5493 144.932 24.2C144.932 26.8133 145.473 28.8573 146.556 30.332C147.657 31.8067 149.179 32.544 151.12 32.544C153.36 32.544 154.975 31.7413 155.964 30.136L157.112 31.368C156.589 32.2827 155.796 33.0013 154.732 33.524C153.668 34.028 152.455 34.28 151.092 34.28ZM161.289 14.4H163.361V23.248H173.329V14.4H175.401V34H173.329V24.984H163.361V34H161.289V14.4Z" fill="white"/>
<defs>
<linearGradient id="paint0_linear_5_65623" x1="31.1312" y1="6.63248" x2="7.52941" y2="41.8904" gradientUnits="userSpaceOnUse">
<stop stop-color="#00EEDF"/>
<stop offset="0.442295" stop-color="#225AFF"/>
<stop offset="1" stop-color="#4003CC"/>
</linearGradient>
<clipPath id="clip0_5_65623">
<rect width="48" height="48" fill="white"/>
</clipPath>
</defs>
</svg>
