<svg width="21" height="19" viewBox="0 0 21 19" fill="none" xmlns="http://www.w3.org/2000/svg">
<path fill-rule="evenodd" clip-rule="evenodd" d="M4.66992 0.5C2.46078 0.5 0.669922 2.29086 0.669922 4.5V14.5C0.669922 16.7091 2.46078 18.5 4.66992 18.5H16.6699C18.8791 18.5 20.6699 16.7091 20.6699 14.5V4.5C20.6699 2.29086 18.8791 0.5 16.6699 0.5H4.66992ZM5.08595 4.87592C4.7413 4.64616 4.27565 4.73929 4.04589 5.08393C3.81612 5.42858 3.90925 5.89423 4.2539 6.124L8.0351 8.6448C9.63062 9.70848 11.7092 9.70848 13.3048 8.64479L17.086 6.124C17.4306 5.89423 17.5237 5.42858 17.294 5.08393C17.0642 4.73929 16.5985 4.64616 16.2539 4.87592L12.4727 7.39672C11.381 8.1245 9.95882 8.1245 8.86715 7.39672L5.08595 4.87592Z" fill="white"/>
</svg>
