<svg width="19" height="19" viewBox="0 0 19 19" fill="none" xmlns="http://www.w3.org/2000/svg">
<path fill-rule="evenodd" clip-rule="evenodd" d="M10 0.125C9.58579 0.125 9.25 0.460786 9.25 0.875C9.25 1.28921 9.58579 1.625 10 1.625C10.9521 1.625 11.8948 1.81253 12.7745 2.17687C13.6541 2.54122 14.4533 3.07525 15.1265 3.74848C15.7997 4.4217 16.3338 5.22093 16.6981 6.10054C17.0625 6.98016 17.25 7.92292 17.25 8.875C17.25 9.28921 17.5858 9.625 18 9.625C18.4142 9.625 18.75 9.28921 18.75 8.875C18.75 7.72593 18.5237 6.58812 18.0839 5.52652C17.6442 4.46492 16.9997 3.50033 16.1872 2.68782C15.3747 1.8753 14.4101 1.23078 13.3485 0.791054C12.2869 0.351325 11.1491 0.125 10 0.125ZM18 16.875V15.2291C18 14.4113 17.5021 13.6758 16.7428 13.3721L14.7086 12.5585C13.7429 12.1721 12.6422 12.5906 12.177 13.521L12 13.875C12 13.875 9.5 13.375 7.5 11.375C5.5 9.375 5 6.875 5 6.875L5.35402 6.69799C6.28438 6.23281 6.70285 5.13214 6.31654 4.16636L5.50289 2.13222C5.19916 1.3729 4.46374 0.875 3.64593 0.875H2C0.895431 0.875 0 1.77043 0 2.875C0 11.7116 7.16344 18.875 16 18.875C17.1046 18.875 18 17.9796 18 16.875ZM9.25 4.875C9.25 4.46079 9.58579 4.125 10 4.125C10.6238 4.125 11.2414 4.24786 11.8177 4.48657C12.394 4.72528 12.9177 5.07516 13.3588 5.51624C13.7998 5.95732 14.1497 6.48096 14.3884 7.05725C14.6271 7.63355 14.75 8.25122 14.75 8.875C14.75 9.28921 14.4142 9.625 14 9.625C13.5858 9.625 13.25 9.28921 13.25 8.875C13.25 8.4482 13.1659 8.02559 13.0026 7.63128C12.8393 7.23697 12.5999 6.87869 12.2981 6.5769C11.9963 6.27511 11.638 6.03572 11.2437 5.87239C10.8494 5.70906 10.4268 5.625 10 5.625C9.58579 5.625 9.25 5.28921 9.25 4.875Z" fill="white"/>
</svg>
