<svg width="504" height="482" viewBox="0 0 504 482" fill="none" xmlns="http://www.w3.org/2000/svg">
<path d="M319.453 58H32C14.3269 58 0 72.3269 0 90V392C0 409.673 14.3269 424 32 424H352C369.673 424 384 409.673 384 392V124.823C384 116.709 380.918 108.899 375.378 102.972L342.831 68.1492C336.779 61.6749 328.314 58 319.453 58Z" fill="#080811"/>
<path d="M32 59H319.453C328.037 59 336.238 62.5601 342.1 68.832L374.648 103.655C380.015 109.397 383 116.963 383 124.823V392C383 409.121 369.121 423 352 423H32C14.8792 423 1 409.121 1 392V90C1 72.8792 14.8792 59 32 59Z" stroke="white" stroke-opacity="0.15" stroke-width="2"/>
<path d="M32 59H319.453C328.037 59 336.238 62.5601 342.1 68.832L374.648 103.655C380.015 109.397 383 116.963 383 124.823V392C383 409.121 369.121 423 352 423H32C14.8792 423 1 409.121 1 392V90C1 72.8792 14.8792 59 32 59Z" stroke="url(#paint0_linear_238_33644)" stroke-opacity="0.85" stroke-width="2"/>
<g style="mix-blend-mode:color-dodge" opacity="0.4" filter="url(#filter0_f_238_33644)">
<g clip-path="url(#clip0_238_33644)">
<path d="M384 120H142V362H384V120Z" fill="white"/>
<path d="M384 120H142V362H384V120Z" fill="#907CFF" fill-opacity="0.163124"/>
<mask id="mask0_238_33644" style="mask-type:luminance" maskUnits="userSpaceOnUse" x="142" y="120" width="242" height="242">
<path d="M384 120H142V362H384V120Z" fill="white"/>
</mask>
<g mask="url(#mask0_238_33644)">
<g filter="url(#filter1_f_238_33644)">
<path d="M383.244 241H198.266V414.333H383.244V241Z" fill="#907CFF"/>
</g>
</g>
<g style="mix-blend-mode:overlay">
<path d="M384 120H142V362H384V120Z" fill="#808080"/>
</g>
</g>
</g>
<defs>
<filter id="filter0_f_238_33644" x="22" y="0" width="482" height="482" filterUnits="userSpaceOnUse" color-interpolation-filters="sRGB">
<feFlood flood-opacity="0" result="BackgroundImageFix"/>
<feBlend mode="normal" in="SourceGraphic" in2="BackgroundImageFix" result="shape"/>
<feGaussianBlur stdDeviation="60" result="effect1_foregroundBlur_238_33644"/>
</filter>
<filter id="filter1_f_238_33644" x="-51.7344" y="-9" width="684.979" height="673.332" filterUnits="userSpaceOnUse" color-interpolation-filters="sRGB">
<feFlood flood-opacity="0" result="BackgroundImageFix"/>
<feBlend mode="normal" in="SourceGraphic" in2="BackgroundImageFix" result="shape"/>
<feGaussianBlur stdDeviation="125" result="effect1_foregroundBlur_238_33644"/>
</filter>
<linearGradient id="paint0_linear_238_33644" x1="192" y1="58" x2="192" y2="424" gradientUnits="userSpaceOnUse">
<stop stop-color="#EE917D"/>
<stop offset="0.562842" stop-color="#FF3333" stop-opacity="0"/>
</linearGradient>
<clipPath id="clip0_238_33644">
<rect x="142" y="120" width="242" height="242" rx="121" fill="white"/>
</clipPath>
</defs>
</svg>
